<svg xmlns="http://www.w3.org/2000/svg" width="206" height="204" viewBox="0 0 206 204">
  <g id="Group_85" data-name="Group 85" transform="translate(-1102 -464)">
    <rect id="Rectangle_165" data-name="Rectangle 165" width="206" height="204" rx="8" transform="translate(1102 464)" fill="none"/>
    <g id="Path_121" data-name="Path 121" transform="translate(2943.491 -631.945)" fill="none" stroke-linecap="round" stroke-linejoin="round">
      <path d="M-1828.536,1194.794l9.827-4.913,31.663,10.372,110.4-50.791s50.193,5.964,16.648,21.121-37.024,18.636-37.024,18.636l-29.321,78.769-15.9,6.958,6.709-65.848s-54.17,20.624-62.867,15.9S-1828.536,1194.794-1828.536,1194.794Z" stroke="none"/>
      <path d="M -1675.549682617188 1156.66357421875 L -1784.121215820312 1206.612182617188 C -1785.724975585938 1207.350219726562 -1787.548217773438 1207.454711914062 -1789.22607421875 1206.905151367188 L -1816.51953125 1197.964111328125 C -1808.512329101562 1206.949462890625 -1799.180053710938 1216.626708984375 -1795.594604492188 1218.621948242188 C -1795.591186523438 1218.622680664062 -1795.245971679688 1218.70263671875 -1794.3896484375 1218.70263671875 C -1782.950439453125 1218.70263671875 -1749.8232421875 1207.046508789062 -1738.024047851562 1202.55517578125 C -1735.755493164062 1201.69140625 -1733.200073242188 1202.065307617188 -1731.2734375 1203.54296875 C -1729.346801757812 1205.020629882812 -1728.323486328125 1207.39111328125 -1728.569702148438 1209.806762695312 L -1734.063354492188 1263.725952148438 L -1731.864624023438 1262.764038085938 L -1703.5791015625 1186.776611328125 C -1703.228515625 1185.834716796875 -1702.67919921875 1184.9794921875 -1701.968627929688 1184.268798828125 C -1699.142944335938 1181.443359375 -1685.26025390625 1174.3173828125 -1662.877807617188 1164.203735351562 C -1660.234252929688 1163.00927734375 -1658.46435546875 1162.014038085938 -1657.291748046875 1161.249145507812 C -1661.110717773438 1159.53857421875 -1668.395629882812 1157.674682617188 -1675.549682617188 1156.66357421875 M -1676.643676757812 1149.461669921875 C -1676.643676757812 1149.461669921875 -1626.450317382812 1155.42529296875 -1659.995361328125 1170.582763671875 C -1693.540405273438 1185.740234375 -1697.018920898438 1189.218627929688 -1697.018920898438 1189.218627929688 L -1726.33984375 1267.987548828125 L -1742.24267578125 1274.945068359375 L -1735.533569335938 1209.09716796875 C -1735.533569335938 1209.09716796875 -1789.702880859375 1229.72119140625 -1798.400146484375 1225.000244140625 C -1807.096923828125 1220.279296875 -1828.536376953125 1194.793701171875 -1828.536376953125 1194.793701171875 L -1818.709838867188 1189.880615234375 L -1787.046875 1200.2529296875 L -1676.643676757812 1149.461669921875 Z" stroke="none" fill="#707070"/>
    </g>
    <g id="Path_122" data-name="Path 122" transform="translate(2893.621 -636.451)" fill="none" stroke-linecap="round" stroke-linejoin="round">
      <path d="M-1711.755,1183.786l28.575-13.418-40.006-12.921s-2.914-.452-4.74.679-13.224,6.786-13.224,6.786Z" stroke="none"/>
      <path d="M -1711.228515625 1175.804931640625 L -1702.21875 1171.57421875 L -1724.66162109375 1164.325561523438 C -1725.232788085938 1164.653442382812 -1726.0771484375 1165.10791015625 -1727.073608398438 1165.630615234375 L -1711.228515625 1175.804931640625 M -1711.755126953125 1183.785522460938 L -1741.150146484375 1164.910888671875 C -1741.150146484375 1164.910888671875 -1729.753173828125 1159.255859375 -1727.926025390625 1158.124877929688 C -1726.099365234375 1156.993896484375 -1723.185668945312 1157.446411132812 -1723.185546875 1157.4462890625 L -1683.1796875 1170.367309570312 L -1711.755126953125 1183.785522460938 Z" stroke="none" fill="#707070"/>
    </g>
  </g>
</svg>
