<svg xmlns="http://www.w3.org/2000/svg" width="206" height="204" viewBox="0 0 206 204">
  <g id="Group_83" data-name="Group 83" transform="translate(-319 -464)">
    <rect id="Rectangle_155" data-name="Rectangle 155" width="206" height="204" rx="8" transform="translate(319 464)" fill="none"/>
    <g id="Rectangle_166" data-name="Rectangle 166" transform="translate(381 501)" fill="none" stroke="#707070" stroke-linecap="round" stroke-linejoin="round" stroke-width="11">
      <rect width="83" height="131" stroke="none"/>
      <rect x="5.5" y="5.5" width="72" height="120" fill="none"/>
    </g>
    <g id="Ellipse_38" data-name="Ellipse 38" transform="translate(330 555.327)" fill="none" stroke="#707070" stroke-width="10">
      <ellipse cx="18.5" cy="25.5" rx="18.5" ry="25.5" stroke="none"/>
      <ellipse cx="18.5" cy="25.5" rx="13.5" ry="20.5" fill="none"/>
    </g>
    <g id="Ellipse_39" data-name="Ellipse 39" transform="translate(332 555.327)" fill="none" stroke="#707070" stroke-width="10">
      <ellipse cx="18.5" cy="25.5" rx="18.5" ry="25.5" stroke="none"/>
      <ellipse cx="18.5" cy="25.5" rx="13.5" ry="20.5" fill="none"/>
    </g>
    <g id="Ellipse_40" data-name="Ellipse 40" transform="translate(476 555.327)" fill="none" stroke="#707070" stroke-width="10">
      <ellipse cx="18.5" cy="25.5" rx="18.5" ry="25.5" stroke="none"/>
      <ellipse cx="18.5" cy="25.5" rx="13.5" ry="20.5" fill="none"/>
    </g>
    <path id="Path_117" data-name="Path 117" d="M-1497.5,615.289v29.384" transform="translate(1846 -12.673)" fill="none" stroke="#707070" stroke-width="10"/>
    <path id="Path_118" data-name="Path 118" d="M-1497.5,615.289v29.384h151.917" transform="translate(1845 -12.673)" fill="none" stroke="#707070" stroke-linejoin="round" stroke-width="10"/>
    <path id="Path_119" data-name="Path 119" d="M-1497.5,615.289v29.384" transform="translate(1992 -12.673)" fill="none" stroke="#707070" stroke-width="10"/>
    <g id="Rectangle_167" data-name="Rectangle 167" transform="translate(399 521)" fill="none" stroke="#707070" stroke-width="5">
      <rect width="18" height="22" stroke="none"/>
      <rect x="2.5" y="2.5" width="13" height="17" fill="none"/>
    </g>
    <g id="Rectangle_169" data-name="Rectangle 169" transform="translate(399 555)" fill="none" stroke="#707070" stroke-width="5">
      <rect width="18" height="22" stroke="none"/>
      <rect x="2.5" y="2.5" width="13" height="17" fill="none"/>
    </g>
    <g id="Rectangle_171" data-name="Rectangle 171" transform="translate(399 590)" fill="none" stroke="#707070" stroke-width="5">
      <rect width="18" height="22" stroke="none"/>
      <rect x="2.5" y="2.5" width="13" height="17" fill="none"/>
    </g>
    <g id="Rectangle_168" data-name="Rectangle 168" transform="translate(428 521)" fill="none" stroke="#707070" stroke-width="5">
      <rect width="18" height="22" stroke="none"/>
      <rect x="2.5" y="2.5" width="13" height="17" fill="none"/>
    </g>
    <g id="Rectangle_170" data-name="Rectangle 170" transform="translate(428 555)" fill="none" stroke="#707070" stroke-width="5">
      <rect width="18" height="22" stroke="none"/>
      <rect x="2.5" y="2.5" width="13" height="17" fill="none"/>
    </g>
    <g id="Rectangle_172" data-name="Rectangle 172" transform="translate(428 590)" fill="none" stroke="#707070" stroke-width="5">
      <rect width="18" height="22" stroke="none"/>
      <rect x="2.5" y="2.5" width="13" height="17" fill="none"/>
    </g>
  </g>
</svg>
