<svg xmlns="http://www.w3.org/2000/svg" width="1477" height="1477" viewBox="0 0 1477 1477">
  <g id="Group_372" data-name="Group 372" transform="translate(-1205 4078)">
    <circle id="Ellipse_44" data-name="Ellipse 44" cx="738.5" cy="738.5" r="738.5" transform="translate(1205 -4078)" fill="#fff"/>
    <g id="idea" transform="translate(1129.9 -3969.675)">
      <g id="background">
        <g id="Group_99" data-name="Group 99">
          <g id="Group_98" data-name="Group 98">
            <path id="Path_133" data-name="Path 133" d="M296.7,865.4A453.088,453.088,0,0,0,308,929.7a1.5,1.5,0,0,0,2.9-.8,456.271,456.271,0,0,1-11.2-63.5c-.2-1.9-3.2-1.9-3,0Z" fill="#e8e8e8"/>
          </g>
        </g>
        <g id="Group_101" data-name="Group 101">
          <g id="Group_100" data-name="Group 100">
            <path id="Path_134" data-name="Path 134" d="M308.6,930.7a119.168,119.168,0,0,0,59.9,0,1.5,1.5,0,0,0-.8-2.9,115.171,115.171,0,0,1-58.3,0c-1.8-.5-2.6,2.4-.8,2.9Z" fill="#e8e8e8"/>
          </g>
        </g>
        <g id="Group_103" data-name="Group 103">
          <g id="Group_102" data-name="Group 102">
            <path id="Path_135" data-name="Path 135" d="M370.8,927.7q1.95-31.95,5-63.9c.2-1.9-2.8-1.9-3,0q-3,31.95-5,63.9c-.1,1.9,2.9,1.9,3,0Z" fill="#e8e8e8"/>
          </g>
        </g>
        <g id="Group_105" data-name="Group 105">
          <g id="Group_104" data-name="Group 104">
            <path id="Path_136" data-name="Path 136" d="M298.4,867a179.136,179.136,0,0,0,75.4-.7c1.9-.4,1.1-3.3-.8-2.9a176.523,176.523,0,0,1-73.8.7c-1.9-.4-2.7,2.5-.8,2.9Z" fill="#e8e8e8"/>
          </g>
        </g>
        <g id="Group_107" data-name="Group 107">
          <g id="Group_106" data-name="Group 106">
            <path id="Path_137" data-name="Path 137" d="M298.1,874.2c.8,4.1,6,3.9,9.2,4.2a220.938,220.938,0,0,0,24.4.7c7.8-.2,15.6-.8,23.4-1.7,6.2-.8,12.2-1.6,17.7-4.7,1.7-.9.2-3.5-1.5-2.6-9.9,5.5-23.6,5.3-34.7,5.8-5.5.2-11.1.3-16.6.2-2.9-.1-18.4.6-19-2.7-.4-1.9-3.2-1.1-2.9.8Z" fill="#e8e8e8"/>
          </g>
        </g>
        <g id="Group_109" data-name="Group 109">
          <g id="Group_108" data-name="Group 108">
            <path id="Path_138" data-name="Path 138" d="M303.8,908.9A87.8,87.8,0,0,0,322,931.4c1.4,1.3,3.6-.8,2.1-2.1a81.21,81.21,0,0,1-17.7-21.9c-.9-1.7-3.5-.2-2.6,1.5Z" fill="#e8e8e8"/>
          </g>
        </g>
        <g id="Group_111" data-name="Group 111">
          <g id="Group_110" data-name="Group 110">
            <path id="Path_139" data-name="Path 139" d="M299.9,885.8A239.785,239.785,0,0,0,336.7,933c1.4,1.4,3.5-.8,2.1-2.1a237.307,237.307,0,0,1-36.3-46.6c-1-1.6-3.6-.1-2.6,1.5Z" fill="#e8e8e8"/>
          </g>
        </g>
        <g id="Group_113" data-name="Group 113">
          <g id="Group_112" data-name="Group 112">
            <path id="Path_140" data-name="Path 140" d="M316.6,878.6a355.158,355.158,0,0,0,36.8,53.5c1.2,1.5,3.3-.6,2.1-2.1a346.712,346.712,0,0,1-36.3-52.9c-.9-1.7-3.5-.2-2.6,1.5Z" fill="#e8e8e8"/>
          </g>
        </g>
        <g id="Group_115" data-name="Group 115">
          <g id="Group_114" data-name="Group 114">
            <path id="Path_141" data-name="Path 141" d="M335.7,879.3q15.45,23.1,31.2,46c1.1,1.6,3.7.1,2.6-1.5q-15.75-22.95-31.2-46c-1.1-1.6-3.7-.1-2.6,1.5Z" fill="#e8e8e8"/>
          </g>
        </g>
        <g id="Group_117" data-name="Group 117">
          <g id="Group_116" data-name="Group 116">
            <path id="Path_142" data-name="Path 142" d="M351.7,878.4c5.2,8.4,10.8,16.6,16.6,24.6,1.1,1.5,3.7,0,2.6-1.5-5.8-8-11.4-16.2-16.6-24.6-1-1.6-3.6-.1-2.6,1.5Z" fill="#e8e8e8"/>
          </g>
        </g>
        <g id="Group_119" data-name="Group 119">
          <g id="Group_118" data-name="Group 118">
            <path id="Path_143" data-name="Path 143" d="M265.2,777.4c1.2,6.9,2.4,13.9,3.7,20.8.4,1.9.7,3.9,2.3,5.1,1.1.9,4.7.8,5.4,1.8a11.018,11.018,0,0,0,.2-1.8c-1.5,1.5-3,3-4.6,4.4a1.674,1.674,0,0,0-.4,1.5c.9,2.7,1.5,6.7,3.3,9,.9,1.2,2.5,1,3.2,1.7.6.6.4.2.1,2a18.478,18.478,0,0,0,0,4.7,27.151,27.151,0,0,0,1.9,6.9c5.2,12.6,15.3,22.8,25,32.2,1.4,1.3,3.5-.8,2.1-2.1-6.2-6-12.4-12.2-17.5-19.2-5-6.9-10.9-16.2-7.8-25a1.391,1.391,0,0,0-.4-1.5c-1.9-1.5-3.8-.9-5.1-3.3-2.5-4.5-1.1-6,2.1-9.1a1.377,1.377,0,0,0,.2-1.8,4.177,4.177,0,0,0-2.7-2c-.8-.3-2,0-2.8-.4-1.7-.9-1.7-3.1-2-4.7-1.2-6.6-2.4-13.3-3.5-19.9-.2-2-3.1-1.2-2.7.7Z" fill="#e8e8e8"/>
          </g>
        </g>
        <g id="Group_121" data-name="Group 121">
          <g id="Group_120" data-name="Group 120">
            <path id="Path_144" data-name="Path 144" d="M267.4,777a97.574,97.574,0,0,1,66.5,90.6,1.5,1.5,0,0,0,3,0,100.761,100.761,0,0,0-68.7-93.5c-1.8-.6-2.6,2.3-.8,2.9Z" fill="#e8e8e8"/>
          </g>
        </g>
        <g id="Group_123" data-name="Group 123">
          <g id="Group_122" data-name="Group 122">
            <path id="Path_145" data-name="Path 145" d="M327.3,826.6c9.7-26.9,24-52.9,46.9-70.6,1.5-1.2,0-3.8-1.5-2.6-23.6,18.3-38.3,44.7-48.3,72.4-.6,1.8,2.3,2.6,2.9.8Z" fill="#e8e8e8"/>
          </g>
        </g>
        <g id="Group_125" data-name="Group 125">
          <g id="Group_124" data-name="Group 124">
            <path id="Path_146" data-name="Path 146" d="M371.6,755.4c.7,9.2,1.5,18.4,2.2,27.7.2,1.9,3.2,1.9,3,0-.7-9.2-1.5-18.4-2.2-27.7-.1-1.9-3.1-1.9-3,0Z" fill="#e8e8e8"/>
          </g>
        </g>
        <g id="Group_127" data-name="Group 127">
          <g id="Group_126" data-name="Group 126">
            <path id="Path_147" data-name="Path 147" d="M375.1,782.1c-1.3.3-2.6.6-3.8,1a1.5,1.5,0,0,0,.8,2.9c1.3-.3,2.6-.6,3.8-1,1.9-.5,1.1-3.3-.8-2.9Z" fill="#e8e8e8"/>
          </g>
        </g>
        <g id="Group_129" data-name="Group 129">
          <g id="Group_128" data-name="Group 128">
            <path id="Path_148" data-name="Path 148" d="M369.8,785.8a4.248,4.248,0,0,0,3.8,3.3,1.473,1.473,0,0,0,1.5-1.5,1.538,1.538,0,0,0-1.5-1.5h-.1c-.1,0-.3-.1-.1,0-.1-.1-.2-.1-.3-.2-.2-.1.2.2-.1-.1l-.2-.2c.2.2,0,0,0-.1-.1-.1-.1-.3-.1-.1,0-.1-.1-.3-.1-.4a1.4,1.4,0,0,0-1.8-1,1.431,1.431,0,0,0-1,1.8Z" fill="#e8e8e8"/>
          </g>
        </g>
        <g id="Group_131" data-name="Group 131">
          <g id="Group_130" data-name="Group 130">
            <path id="Path_149" data-name="Path 149" d="M372.1,788a135.682,135.682,0,0,1-.7,16.9c-.2,1.8.1,6-1.1,7.4a18.331,18.331,0,0,0-2.3.7c-1.5,1.2.6,3.3,2.1,2.1.5-.4,1.7,0,2.5-.9,1.2-1.2,1-4,1.2-5.4a145.681,145.681,0,0,0,1.2-20.9c.1-1.8-2.9-1.8-2.9.1Z" fill="#e8e8e8"/>
          </g>
        </g>
        <g id="Group_133" data-name="Group 133">
          <g id="Group_132" data-name="Group 132">
            <path id="Path_150" data-name="Path 150" d="M366.8,815.6c3.2,3.8,2.3,10.1,2,14.7-.4,5.3-1.3,10.2-3.9,14.8-3.7,6.8-8.9,12.5-11.6,19.9-.7,1.8,2.2,2.6,2.9.8,3.6-9.7,11.9-16.9,14.4-27.1,1.8-7.3,3.5-19-1.7-25.2-1.2-1.4-3.3.7-2.1,2.1Z" fill="#e8e8e8"/>
          </g>
        </g>
        <g id="Group_135" data-name="Group 135">
          <g id="Group_134" data-name="Group 134">
            <path id="Path_151" data-name="Path 151" d="M343.2,866.4a253.012,253.012,0,0,1,22.3-81.9c.8-1.7-1.8-3.3-2.6-1.5a257.738,257.738,0,0,0-22.7,83.5c-.2,1.9,2.8,1.8,3-.1Z" fill="#e8e8e8"/>
          </g>
        </g>
        <g id="Group_137" data-name="Group 137">
          <g id="Group_136" data-name="Group 136">
            <path id="Path_152" data-name="Path 152" d="M284.2,793.7A209.29,209.29,0,0,1,322,868a1.5,1.5,0,0,0,2.9-.8,213.554,213.554,0,0,0-38.6-75.6c-1.2-1.5-3.3.6-2.1,2.1Z" fill="#e8e8e8"/>
          </g>
        </g>
        <g id="Group_139" data-name="Group 139">
          <g id="Group_138" data-name="Group 138">
            <path id="Path_153" data-name="Path 153" d="M286.1,830.6a38.938,38.938,0,0,1,23.3,5.9c1.6,1,3.2-1.6,1.5-2.6a42.454,42.454,0,0,0-24.8-6.3c-2,.1-2,3.1,0,3Z" fill="#e8e8e8"/>
          </g>
        </g>
        <g id="Group_141" data-name="Group 141">
          <g id="Group_140" data-name="Group 140">
            <path id="Path_154" data-name="Path 154" d="M304.4,817.2a32.525,32.525,0,0,1,2.2-16c.7-1.8-2.2-2.6-2.9-.8a34.416,34.416,0,0,0-2.3,16.8c.2,1.9,3.2,1.9,3,0Z" fill="#e8e8e8"/>
          </g>
        </g>
        <g id="Group_143" data-name="Group 143">
          <g id="Group_142" data-name="Group 142">
            <path id="Path_155" data-name="Path 155" d="M336.8,800.6c3.3,8.1,8.1,16.7,9.3,25.3.3,1.9,3.2,1.1,2.9-.8-1.3-8.7-6.1-17.3-9.3-25.3-.7-1.8-3.6-1-2.9.8Z" fill="#e8e8e8"/>
          </g>
        </g>
        <g id="Group_145" data-name="Group 145">
          <g id="Group_144" data-name="Group 144">
            <path id="Path_156" data-name="Path 156" d="M355.2,810.1c2.9-3.3,5.7-7.2,9.4-9.7,3.1-2.1,6.5-3.5,8.9-6.4,1.2-1.5-.9-3.6-2.1-2.1-2.6,3.1-6.4,4.4-9.5,6.8-3.4,2.6-6,6.1-8.8,9.3-1.3,1.5.8,3.6,2.1,2.1Z" fill="#e8e8e8"/>
          </g>
        </g>
        <g id="Group_147" data-name="Group 147">
          <g id="Group_146" data-name="Group 146">
            <path id="Path_157" data-name="Path 157" d="M356.2,865.4a45.451,45.451,0,0,1,14.7-1.5c1.9.1,1.9-2.9,0-3a47.611,47.611,0,0,0-15.5,1.6,1.506,1.506,0,0,0,.8,2.9Z" fill="#e8e8e8"/>
          </g>
        </g>
        <g id="Group_149" data-name="Group 149">
          <g id="Group_148" data-name="Group 148">
            <path id="Path_158" data-name="Path 158" d="M355.8,866.6a41.555,41.555,0,0,0,16.4-1.9c1.8-.6,1-3.5-.8-2.9a41.277,41.277,0,0,1-15.6,1.8c-1.9-.1-1.9,2.9,0,3Z" fill="#e8e8e8"/>
          </g>
        </g>
        <g id="Group_151" data-name="Group 151">
          <g id="Group_150" data-name="Group 150">
            <path id="Path_159" data-name="Path 159" d="M299.7,866.1h3.8a1.5,1.5,0,0,0,0-3h-3.8a1.5,1.5,0,0,0,0,3Z" fill="#e8e8e8"/>
          </g>
        </g>
        <g id="Group_153" data-name="Group 153">
          <g id="Group_152" data-name="Group 152">
            <path id="Path_160" data-name="Path 160" d="M373,890.3h95.2a1.5,1.5,0,0,0,0-3H373a1.5,1.5,0,0,0,0,3Z" fill="#e8e8e8"/>
          </g>
        </g>
        <g id="Group_155" data-name="Group 155">
          <g id="Group_154" data-name="Group 154">
            <path id="Path_161" data-name="Path 161" d="M909.6,870.5h56.6a1.5,1.5,0,0,0,0-3H909.6a1.5,1.5,0,0,0,0,3Z" fill="#e8e8e8"/>
          </g>
        </g>
        <g id="Group_157" data-name="Group 157">
          <g id="Group_156" data-name="Group 156">
            <path id="Path_162" data-name="Path 162" d="M1081.2,872.3h314.1a1.5,1.5,0,0,0,0-3H1081.2a1.5,1.5,0,0,0,0,3Z" fill="#e8e8e8"/>
          </g>
        </g>
        <g id="Group_159" data-name="Group 159">
          <g id="Group_158" data-name="Group 158">
            <path id="Path_163" data-name="Path 163" d="M960.5,544q-11.4,23.55-24.5,46.2c-.4.8-.1,2.1.9,2.2,42.9,6.5,81.3,27.8,118.3,49.3a1.5,1.5,0,0,0,1.5-2.6c-37.3-21.6-75.9-43-119.1-49.6.3.7.6,1.5.9,2.2,8.8-15.1,16.9-30.5,24.5-46.2.9-1.7-1.6-3.3-2.5-1.5Z" fill="#e8e8e8"/>
          </g>
        </g>
        <g id="Group_161" data-name="Group 161">
          <g id="Group_160" data-name="Group 160">
            <path id="Path_164" data-name="Path 164" d="M967.1,598.5c3-8.6,6-17.3,9-25.9,1.3-3.6,2.2-7.6,3.9-11.1a7.243,7.243,0,0,1,3.7-4.9l3.6.9c1.8.5,3.6.9,5.3,1.4,4.1,1,10.7,1,10,6.5-.5,3.9-2.8,8.1-4.1,11.9-3,8.5-5.9,17-8.9,25.5-.6,1.8,2.3,2.6,2.9.8,3.9-11.2,7.8-22.5,11.7-33.7.9-2.6,3.4-7,1.4-9.8-2.2-3-8.8-3.2-12.2-4.1-3.3-.8-9.1-3.8-12.5-2.2-2.9,1.3-3.5,6.3-4.4,8.8-4.1,11.7-8.2,23.5-12.3,35.2-.6,1.7,2.3,2.5,2.9.7Z" fill="#e8e8e8"/>
          </g>
        </g>
        <g id="Group_163" data-name="Group 163">
          <g id="Group_162" data-name="Group 162">
            <path id="Path_165" data-name="Path 165" d="M1005.7,609.2c6.4-13.5,12.9-27.1,19.3-40.6,3.2-6.8,6.4-13.5,9.7-20.3,1.5-3.1,2.7-6.8,4.6-9.7,1.6-2.5,2-3.1,4.8-2a27.945,27.945,0,0,1,4.6,3c1.7,1.2,4.4,2.5,5.6,4.1,1.5,1.9.9,3.9,0,6.3-1.2,3.2-3,6.3-4.5,9.4-3.3,6.8-6.6,13.6-10.1,20.4-6.6,12.9-13.5,25.7-20.6,38.4a1.5,1.5,0,0,0,2.6,1.5q13.05-23.1,24.8-46.8c3.9-7.8,8.2-15.8,11.5-23.9,2.3-5.9-2.7-8.3-7.1-11.4-3.5-2.4-9-7.9-12.8-3.4-2.4,2.8-3.7,7.5-5.3,10.9-2,4.1-3.9,8.2-5.9,12.4q-12,25.2-23.9,50.4c-.7,1.5,1.9,3.1,2.7,1.3Z" fill="#e8e8e8"/>
          </g>
        </g>
        <g id="Group_165" data-name="Group 165">
          <g id="Group_164" data-name="Group 164">
            <path id="Path_166" data-name="Path 166" d="M1038.9,630a283.478,283.478,0,0,1,29-38.1,11.021,11.021,0,0,1-1.8.2c3.8,2.6,7.5,5.1,11.3,7.7a15.991,15.991,0,0,1-.5-2.1c-8.5,13.3-17,26.5-25.5,39.8-1,1.6,1.5,3.1,2.6,1.5,8.5-13.3,17-26.5,25.5-39.8a1.6,1.6,0,0,0-.5-2.1c-3.8-2.6-7.5-5.1-11.3-7.7a1.507,1.507,0,0,0-1.8.2,290.732,290.732,0,0,0-29.5,38.7,1.512,1.512,0,1,0,2.5,1.7Z" fill="#e8e8e8"/>
          </g>
        </g>
        <g id="Group_167" data-name="Group 167">
          <g id="Group_166" data-name="Group 166">
            <path id="Path_167" data-name="Path 167" d="M1158.2,534.9c-10-3.8-16.3-13.8-14.5-24.5,1.8-10.9,12.5-20.6,23.5-14.1,7.6,4.5,11.5,14.7,8.6,23-3,8.9-12.8,14.2-21.9,12.8-1.9-.3-2.7,2.6-.8,2.9,10.7,1.6,22-4.3,25.6-14.9s-2.2-23.4-12.6-27.7c-12.2-5-23.3,5.5-25.4,17.2-2.2,12.4,5.1,23.8,16.6,28.2,1.9.7,2.7-2.2.9-2.9Z" fill="#e8e8e8"/>
          </g>
        </g>
        <g id="Group_169" data-name="Group 169">
          <g id="Group_168" data-name="Group 168">
            <path id="Path_168" data-name="Path 168" d="M1178.7,533c-19.9-.6-12.4-32.5,5.2-31.3,17.6,1.3,10.4,37.2-8.9,30.6-1.8-.6-2.6,2.3-.8,2.9,22.3,7.6,32.3-33,11-36.4-10.4-1.7-19.8,8.1-21.4,17.8-1.6,9.6,4.9,19,14.9,19.3,1.9.2,1.9-2.8,0-2.9Z" fill="#e8e8e8"/>
          </g>
        </g>
        <g id="Group_171" data-name="Group 171">
          <g id="Group_170" data-name="Group 170">
            <path id="Path_169" data-name="Path 169" d="M1163.8,442.5c-1.7-1.8-2.5-4.7-1.2-6.9,1.3-2.1,4.5-3.1,6.5-1.5,1.8,1.4,2.2,4.4.5,5.9-2,1.8-5.2.9-7.1-.6-1.5-1.2-3.6.9-2.1,2.1,3.1,2.4,7.9,3.6,11.2.7a7.023,7.023,0,0,0-.3-10.3c-3.1-2.7-8-1.9-10.6,1.1-2.9,3.4-2.1,8.5.9,11.6a1.522,1.522,0,0,0,2.2-2.1Z" fill="#e8e8e8"/>
          </g>
        </g>
        <g id="Group_173" data-name="Group 173">
          <g id="Group_172" data-name="Group 172">
            <path id="Path_170" data-name="Path 170" d="M873.6,517.8c-2.8-17,7.1-37.5,26.3-37.3,9.8.1,19.3,4.1,29.2,2.7a26.535,26.535,0,0,0,17.2-10.5,35.453,35.453,0,0,0,7-19.3c.5-10.2-3.4-20.6-.6-30.7,1.4-5.1,4.4-9.8,9.5-11.7,4.9-1.7,10.2-.7,15.3-.9,7.4-.3,13.2-3.5,16.9-10,5.2-9.1,4-20,7.6-29.6,4.3-11.6,16.4-21.5,29.2-15.8,1.7.8,3.3-1.8,1.5-2.6-17.4-7.8-31.9,7.9-35.3,23.7-2.2,10.3-1.8,26.3-14.1,30.4-8.6,2.9-18.3-1.6-26.2,4.3-6.5,4.8-8.4,13.6-8.3,21.3.3,11.3,3.8,22.3-1.2,33.1-4.6,10.2-13.7,16.3-25,15.6-10-.6-19.9-4.7-30-2.1-17.1,4.3-24.4,24.5-21.7,40.3.2,1.7,3.1.9,2.7-.9Z" fill="#e8e8e8"/>
          </g>
        </g>
        <g id="Group_175" data-name="Group 175">
          <g id="Group_174" data-name="Group 174">
            <path id="Path_171" data-name="Path 171" d="M1000,446.5c-3.7-8.4,1.4-16.4,9.5-19.1,5.9-2,12.4-2.1,17.5-6.1,4-3.1,5.3-7,4.8-12-.5-4.7-.5-8.4,3.2-11.6,3.1-2.7,7.2-3.7,11.2-3.9,11-.4,26.1,5.2,34.1-5.5,3.7-5,2.6-11.2,4.3-16.8a17.416,17.416,0,0,1,17.8-12.2c1.9.1,1.9-2.9,0-3a20.9,20.9,0,0,0-16.2,6.4c-5.2,5.5-4.5,11.7-6.1,18.6-4.3,18.9-30.6,5.6-43,11.5-4.6,2.2-8.3,6.1-8.7,11.3-.5,6.1,2.3,11.1-3.9,15.3-3.3,2.2-7.1,2.9-10.9,3.8-6.3,1.5-12.5,3.4-15.7,9.5a16.953,16.953,0,0,0-.4,15.2c.7,1.9,3.2.3,2.5-1.4Z" fill="#e8e8e8"/>
          </g>
        </g>
        <g id="Group_177" data-name="Group 177">
          <g id="Group_176" data-name="Group 176">
            <path id="Path_172" data-name="Path 172" d="M1178.2,313.3a24.866,24.866,0,0,1-1.1-2.9c1.3-1.5,2.5-3,3.8-4.5.4-.1,2.2,1.1,2.8,1.1a5.245,5.245,0,0,0,4-1.1c3.7-2.9,2.4-7.5,3.5-11.4,1.8-6.7,9.7-2.1,13.3-7.1,3.6-4.9,2.3-15.3,11.9-12.5a1.5,1.5,0,0,0,.8-2.9,9.892,9.892,0,0,0-12.5,6.3c-.6,1.5-.8,3.2-1.4,4.7-1.3,3.5-2.7,4-6.5,4.2-2.8.2-5,0-6.9,2.4-1.6,2.1-1.6,4.8-1.9,7.3-.3,3.7,0,6.8-5.5,6.4-1.1-.1-2-1.1-3.2-1.1-6.6-.1-5.5,8-3.9,11.9.6,1.8,3.6,1,2.8-.8Z" fill="#e8e8e8"/>
          </g>
        </g>
        <g id="Group_179" data-name="Group 179">
          <g id="Group_178" data-name="Group 178">
            <path id="Path_173" data-name="Path 173" d="M1197,321.6c-1.6-2.1-4.3-8.2.4-9.8,1.7-.6,3.9.1,5.7.1,1.6,0,3,0,4.3-1.1,4-3.2,1.1-8.9,3.2-12.9,3.4-6.5,10.2-1.4,15-4.8,3.4-2.4,4.3-7,4.9-10.8.3-1.9-2.6-2.7-2.9-.8-.7,4.5-1.5,9.5-7.1,10-2.9.3-5.1-.7-7.8.6-4.4,2.1-5.8,6-5.9,10.5-.1,3.8.8,5.7-5.6,6-.8,0-1.6-.2-2.4-.2a7.51,7.51,0,0,0-5.6,3.3c-2.8,4-1.2,8.6,1.6,12.1,1.3,1.5,3.4-.7,2.2-2.2Z" fill="#e8e8e8"/>
          </g>
        </g>
        <g id="Group_181" data-name="Group 181">
          <g id="Group_180" data-name="Group 180">
            <path id="Path_174" data-name="Path 174" d="M346.8,375.8c8.3-10,20.1-18.2,33.7-16.8,14.8,1.5,22.1,13.3,23.5,27.1,2.4,22.9-3.2,50.3,12.3,69.8,6.1,7.7,15.2,11.8,25,9.4,11.8-2.8,21-12.1,31.5-17.6,12.4-6.5,29.5-10,40.7.9,8.2,8,10,20.2,12.7,30.8,2.5,9.6,6.8,20.2,15.4,25.9,5.2,3.4,10.9,3.7,16.9,3.3,6.7-.5,20.4-.9,19,9.6-.2,1.9,2.8,1.9,3,0,.5-4.1-1.4-7.4-4.7-9.8-5.2-3.8-11.2-3.2-17.3-2.8-6.9.5-12.8-.1-18.1-5-4.8-4.4-7.7-10.6-9.8-16.7-3.5-10.5-4.5-22-10.5-31.6-5.9-9.5-16.1-14.1-27.1-13.7-13.9.5-25.6,8.5-36.7,15.9-5.3,3.5-11,7.2-17.5,8.3-7.8,1.3-14.7-2.1-19.7-7.9-9.4-11-10.9-26.7-11.4-40.5-.5-12.9,1.2-26.9-3.1-39.4-3.9-11.4-13.8-18.5-25.7-19.1-13.8-.7-25.9,7.6-34.4,17.8-1.1,1.5,1,3.6,2.3,2.1Z" fill="#e8e8e8"/>
          </g>
        </g>
        <g id="Group_183" data-name="Group 183">
          <g id="Group_182" data-name="Group 182">
            <path id="Path_175" data-name="Path 175" d="M296.3,530.1a740.937,740.937,0,0,1,41.8,80.6c.8,1.8,3.4.2,2.6-1.5a759.051,759.051,0,0,0-41.8-80.6,1.5,1.5,0,0,0-2.6,1.5Z" fill="#e8e8e8"/>
          </g>
        </g>
        <g id="Group_185" data-name="Group 185">
          <g id="Group_184" data-name="Group 184">
            <path id="Path_176" data-name="Path 176" d="M298.2,528.9c24.3-15.1,49.3-29.2,75-42,1.7-.9.2-3.5-1.5-2.6-25.6,12.8-50.6,26.9-75,42-1.7,1.1-.2,3.7,1.5,2.6Z" fill="#e8e8e8"/>
          </g>
        </g>
        <g id="Group_187" data-name="Group 187">
          <g id="Group_186" data-name="Group 186">
            <path id="Path_177" data-name="Path 177" d="M371.4,485.6q19.05,40.05,40.3,78.9c.9,1.7,3.5.2,2.6-1.5-14.2-25.9-27.7-52.2-40.3-78.9-.9-1.8-3.4-.3-2.6,1.5Z" fill="#e8e8e8"/>
          </g>
        </g>
        <g id="Group_189" data-name="Group 189">
          <g id="Group_188" data-name="Group 188">
            <path id="Path_178" data-name="Path 178" d="M341.5,611.3q35.85-21.6,70.9-44.4c1.6-1,.1-3.6-1.5-2.6q-35.1,22.8-70.9,44.4c-1.6,1-.1,3.6,1.5,2.6Z" fill="#e8e8e8"/>
          </g>
        </g>
        <g id="Group_191" data-name="Group 191">
          <g id="Group_190" data-name="Group 190">
            <path id="Path_179" data-name="Path 179" d="M339.6,520.1a323.041,323.041,0,0,0,3.3,57.3c.3,1.9,3.2,1.1,2.9-.8a314.07,314.07,0,0,1-3.2-56.5c.1-1.9-2.9-1.9-3,0Z" fill="#e8e8e8"/>
          </g>
        </g>
        <g id="Group_193" data-name="Group 193">
          <g id="Group_192" data-name="Group 192">
            <path id="Path_180" data-name="Path 180" d="M339.7,519.1c13.9,10.9,27.8,21.6,41.9,32.2,1.5,1.2,3-1.4,1.5-2.6q-20.85-15.6-41.3-31.7c-1.5-1.2-3.6.9-2.1,2.1Z" fill="#e8e8e8"/>
          </g>
        </g>
        <g id="Group_195" data-name="Group 195">
          <g id="Group_194" data-name="Group 194">
            <path id="Path_181" data-name="Path 181" d="M346,578c11.5-10.3,26.5-15.8,37.4-26.9,1.4-1.4-.8-3.5-2.1-2.1-10.9,11-25.8,16.6-37.4,26.9-1.5,1.2.7,3.3,2.1,2.1Z" fill="#e8e8e8"/>
          </g>
        </g>
        <g id="Group_197" data-name="Group 197">
          <g id="Group_196" data-name="Group 196">
            <path id="Path_182" data-name="Path 182" d="M300.3,545.8c3.2-1.6,6.4-3.1,9.6-4.7,1.7-.8.2-3.4-1.5-2.6-3.2,1.6-6.4,3.1-9.6,4.7-1.7.9-.2,3.4,1.5,2.6Z" fill="#e8e8e8"/>
          </g>
        </g>
        <g id="Group_199" data-name="Group 199">
          <g id="Group_198" data-name="Group 198">
            <path id="Path_183" data-name="Path 183" d="M310.6,562.8a54.552,54.552,0,0,1,8.6-4.6c1.8-.7,1-3.6-.8-2.9a64.462,64.462,0,0,0-9.4,4.9c-1.5,1.1,0,3.7,1.6,2.6Z" fill="#e8e8e8"/>
          </g>
        </g>
        <g id="Group_201" data-name="Group 201">
          <g id="Group_200" data-name="Group 200">
            <path id="Path_184" data-name="Path 184" d="M321.9,582.4c2.8-1.4,5.6-2.8,8.4-4.1,1.7-.9.2-3.4-1.5-2.6-2.8,1.4-5.6,2.8-8.4,4.1-1.7.8-.2,3.4,1.5,2.6Z" fill="#e8e8e8"/>
          </g>
        </g>
        <g id="Group_203" data-name="Group 203">
          <g id="Group_202" data-name="Group 202">
            <path id="Path_185" data-name="Path 185" d="M327.7,602a57.126,57.126,0,0,1,9.9-7,1.5,1.5,0,0,0-1.5-2.6,62.977,62.977,0,0,0-10.5,7.5c-1.5,1.3.6,3.4,2.1,2.1Z" fill="#e8e8e8"/>
          </g>
        </g>
        <g id="Group_205" data-name="Group 205">
          <g id="Group_204" data-name="Group 204">
            <path id="Path_186" data-name="Path 186" d="M377.1,505.3a22.632,22.632,0,0,1,7.4-3.4c1.9-.5,1.1-3.3-.8-2.9a23.331,23.331,0,0,0-8.2,3.7c-1.5,1.1,0,3.7,1.6,2.6Z" fill="#e8e8e8"/>
          </g>
        </g>
        <g id="Group_207" data-name="Group 207">
          <g id="Group_206" data-name="Group 206">
            <path id="Path_187" data-name="Path 187" d="M386,522.4c3.2-2,6.4-4,9.5-6.1,1.6-1,.1-3.6-1.5-2.6-3.2,2-6.4,4-9.5,6.1-1.7,1.1-.2,3.7,1.5,2.6Z" fill="#e8e8e8"/>
          </g>
        </g>
        <g id="Group_209" data-name="Group 209">
          <g id="Group_208" data-name="Group 208">
            <path id="Path_188" data-name="Path 188" d="M396.2,542.9c3.4-1.5,6.9-3,10.3-4.5,1.8-.8.2-3.4-1.5-2.6-3.4,1.5-6.9,3-10.3,4.5-1.8.8-.2,3.4,1.5,2.6Z" fill="#e8e8e8"/>
          </g>
        </g>
        <g id="Group_211" data-name="Group 211">
          <g id="Group_210" data-name="Group 210">
            <path id="Path_189" data-name="Path 189" d="M403.5,556.3a45.8,45.8,0,0,1,9-6.7c1.7-.9.2-3.5-1.5-2.6a47.712,47.712,0,0,0-9.6,7.1,1.522,1.522,0,0,0,2.1,2.2Z" fill="#e8e8e8"/>
          </g>
        </g>
        <g id="Group_213" data-name="Group 213">
          <g id="Group_212" data-name="Group 212">
            <path id="Path_190" data-name="Path 190" d="M350,598.1a59.665,59.665,0,0,1,6.2,11.7c.7,1.8,3.6,1,2.9-.8a59.4,59.4,0,0,0-6.5-12.5c-1.1-1.5-3.7,0-2.6,1.6Z" fill="#e8e8e8"/>
          </g>
        </g>
        <g id="Group_215" data-name="Group 215">
          <g id="Group_214" data-name="Group 214">
            <path id="Path_191" data-name="Path 191" d="M365.3,589.8c1.9,3.4,3.7,6.7,5.6,10.1.9,1.7,3.5.2,2.6-1.5-1.9-3.4-3.7-6.7-5.6-10.1-.9-1.7-3.5-.2-2.6,1.5Z" fill="#e8e8e8"/>
          </g>
        </g>
        <g id="Group_217" data-name="Group 217">
          <g id="Group_216" data-name="Group 216">
            <path id="Path_192" data-name="Path 192" d="M383,577.1l6,10.8c.9,1.7,3.5.2,2.6-1.5l-6-10.8c-.9-1.7-3.5-.2-2.6,1.5Z" fill="#e8e8e8"/>
          </g>
        </g>
        <g id="Group_219" data-name="Group 219">
          <g id="Group_218" data-name="Group 218">
            <path id="Path_193" data-name="Path 193" d="M398.9,567.6c1.6,3.8,3.2,7.6,4.9,11.3.8,1.8,3.3.2,2.6-1.5-1.6-3.8-3.2-7.6-4.9-11.3-.8-1.7-3.4-.2-2.6,1.5Z" fill="#e8e8e8"/>
          </g>
        </g>
        <g id="Group_221" data-name="Group 221">
          <g id="Group_220" data-name="Group 220">
            <path id="Path_194" data-name="Path 194" d="M308.2,513.5c1.9,3.1,3.7,6.2,5.6,9.2,1,1.7,3.6.1,2.6-1.5-1.9-3.1-3.7-6.2-5.6-9.2-1-1.6-3.6-.1-2.6,1.5Z" fill="#e8e8e8"/>
          </g>
        </g>
        <g id="Group_223" data-name="Group 223">
          <g id="Group_222" data-name="Group 222">
            <path id="Path_195" data-name="Path 195" d="M325.4,503.5l5.4,12c.8,1.8,3.4.2,2.6-1.5L328,502c-.9-1.8-3.4-.3-2.6,1.5Z" fill="#e8e8e8"/>
          </g>
        </g>
        <g id="Group_225" data-name="Group 225">
          <g id="Group_224" data-name="Group 224">
            <path id="Path_196" data-name="Path 196" d="M340.9,493.9a41.148,41.148,0,0,1,6.2,11.7c.6,1.8,3.5,1,2.9-.8a40.848,40.848,0,0,0-6.5-12.4c-1.1-1.5-3.7-.1-2.6,1.5Z" fill="#e8e8e8"/>
          </g>
        </g>
        <g id="Group_227" data-name="Group 227">
          <g id="Group_226" data-name="Group 226">
            <path id="Path_197" data-name="Path 197" d="M357.6,486.2c2.1,3.2,4.1,6.3,6.2,9.5,1,1.6,3.6.1,2.6-1.5-2.1-3.2-4.1-6.3-6.2-9.5-1.1-1.6-3.7-.1-2.6,1.5Z" fill="#e8e8e8"/>
          </g>
        </g>
        <g id="Group_229" data-name="Group 229">
          <g id="Group_228" data-name="Group 228">
            <path id="Path_198" data-name="Path 198" d="M513.1,287.9c-9.7-3-10.2-13.3-5.6-21,4.5-7.5,13.2-9.5,20-3.3a14.139,14.139,0,0,1,.9,19.8c-5.2,5.8-13.7,5.7-19.7,1.3-1.5-1.2-3,1.4-1.5,2.6,7.6,5.6,18.7,4.7,24.4-3.2a17.148,17.148,0,0,0-4.5-24.6c-20-12.9-37.2,24.3-14.8,31.3,1.9.6,2.7-2.3.8-2.9Z" fill="#e8e8e8"/>
          </g>
        </g>
        <g id="Group_231" data-name="Group 231">
          <g id="Group_230" data-name="Group 230">
            <path id="Path_199" data-name="Path 199" d="M529.2,290.5c-7.5,2.3-9.3-6.7-6-11.5a12.218,12.218,0,0,1,12.8-4.9c4.6,1.2,7.9,5.9,6.7,10.6-1.5,5.9-7.7,8-13.2,7.1-1.9-.3-2.7,2.6-.8,2.9,7.4,1.3,15.4-1.9,17-9.9,1.4-6.9-4-13.2-10.7-14-7.4-.9-15.5,4.5-16.5,12.1-.9,6.6,5.1,12.5,11.7,10.4,1.7-.5.9-3.4-1-2.8Z" fill="#e8e8e8"/>
          </g>
        </g>
        <g id="Group_233" data-name="Group 233">
          <g id="Group_232" data-name="Group 232">
            <path id="Path_200" data-name="Path 200" d="M465.4,355.6c-2.4,4.9,1,9.8,6,11.1,3.8,1,7.8.1,11.7.3a34.069,34.069,0,0,1,12.2,2.9c8.4,3.8,13.8,10.7,14.1,20,.3,7.8-2,15.9,1.4,23.3,7.2,15.6,27,3.7,37.2,13.8,8.5,8.5,5,24,16.4,30.5a1.5,1.5,0,0,0,1.5-2.6c-10.2-5.8-7.8-20.9-15-29.3-3.8-4.4-9.3-5.6-14.9-6-6.8-.4-15.6,1-20.6-4.8-5.8-6.8-2.7-17-3-25a24,24,0,0,0-6.7-16.5,31.772,31.772,0,0,0-14.3-8,38.791,38.791,0,0,0-8.3-1.3c-3.6-.2-19.2,1.6-15-6.9.8-1.7-1.8-3.2-2.7-1.5Z" fill="#e8e8e8"/>
          </g>
        </g>
        <g id="Group_235" data-name="Group 235">
          <g id="Group_234" data-name="Group 234">
            <path id="Path_201" data-name="Path 201" d="M231.6,895.4h54.2a1.5,1.5,0,0,0,0-3H231.6a1.5,1.5,0,1,0,0,3Z" fill="#e8e8e8"/>
          </g>
        </g>
        <g id="Group_237" data-name="Group 237">
          <g id="Group_236" data-name="Group 236">
            <path id="Path_202" data-name="Path 202" d="M260.8,963.2H365.1a1.5,1.5,0,0,0,0-3H260.8a1.5,1.5,0,1,0,0,3Z" fill="#e8e8e8"/>
          </g>
        </g>
        <g id="Group_239" data-name="Group 239">
          <g id="Group_238" data-name="Group 238">
            <path id="Path_203" data-name="Path 203" d="M360.9,944.4h97a1.5,1.5,0,0,0,0-3h-97a1.5,1.5,0,0,0,0,3Z" fill="#e8e8e8"/>
          </g>
        </g>
        <g id="Group_241" data-name="Group 241">
          <g id="Group_240" data-name="Group 240">
            <path id="Path_204" data-name="Path 204" d="M898.8,939.2a124.032,124.032,0,0,1,49.3-1.8c7,1.1,14.1,2.2,21.2,1.6,6.9-.6,13.6-2.7,20.3-4.5,7.6-2.1,15.2-3.7,23.2-3.1,8.2.6,16.1,2.9,24.1,4.7a87.517,87.517,0,0,0,21,2.6c7.5-.2,14.9-1.5,22.2-2.6,20-3.2,38.8-1.2,58.6,2.1,1.9.3,2.7-2.6.8-2.9-16-2.6-32.1-5.3-48.4-3.7-17,1.7-32.8,5.9-50,2.4-14.4-2.9-28.1-7.4-42.9-4.6-7.9,1.5-15.4,4.3-23.3,5.8-8.8,1.7-17.3.7-26.1-.7-17.1-2.6-34-2.4-50.9,1.8-1.7.5-.9,3.4.9,2.9Z" fill="#e8e8e8"/>
          </g>
        </g>
        <g id="Group_243" data-name="Group 243">
          <g id="Group_242" data-name="Group 242">
            <path id="Path_205" data-name="Path 205" d="M1052.4,908.8q47.1-2.55,94.2-5a242.86,242.86,0,0,1,45.9,1.6,81.945,81.945,0,0,0,20.4.3c7.7-.9,15.7-2.1,22.9,1.6,1.7.9,3.2-1.7,1.5-2.6-12.2-6.2-26.3-.4-39.4-1.6-7.8-.7-15.4-2.2-23.2-2.6-8.1-.4-16.2-.2-24.3.2-32.7,1.5-65.4,3.5-98.1,5.2-1.8,0-1.8,3,.1,2.9Z" fill="#e8e8e8"/>
          </g>
        </g>
        <g id="Group_245" data-name="Group 245">
          <g id="Group_244" data-name="Group 244">
            <path id="Path_206" data-name="Path 206" d="M437.5,994.7c14.8,1.4,29.7,2.8,44.5,1.1a117.212,117.212,0,0,0,20.2-4.3,52.5,52.5,0,0,1,25.5-1.7c6.9,1.2,13.7,2.9,20.6,3.5a123.318,123.318,0,0,0,21.9-.5c15.3-1.5,30.6-4.1,45.8-.7,1.9.4,2.7-2.5.8-2.9-14.6-3.2-29.2-1.1-43.9.4-7.3.7-14.6,1.4-21.9,1-8.3-.4-16.3-2.6-24.4-3.9a49.891,49.891,0,0,0-20,.5c-7.2,1.8-14,4.2-21.4,5.3-15.8,2.3-31.9.7-47.7-.7-2-.3-1.9,2.7,0,2.9Z" fill="#e8e8e8"/>
          </g>
        </g>
        <g id="Group_247" data-name="Group 247">
          <g id="Group_246" data-name="Group 246">
            <path id="Path_207" data-name="Path 207" d="M595.7,187.8c-3.9-2.7-9.2-7-7.6-12.4,1.7-5.6,5.9-2.9,9.8-4.2,5.2-1.7,4.9-8,3.4-12.1-1.5-4-4.7-13.7,3.6-10.4,1.9.8,3.3,2.1,5.5,1.4,2-.6,3-2.4,3.5-4.3a18.817,18.817,0,0,0,0-5.3,23.078,23.078,0,0,1-.3-3.7c-.4-2.9,1.4-4.1,5.2-3.6.1,1.9,3.1,1.9,3,0a4.907,4.907,0,0,0-5.3-4.7c-3.5.1-5.4,3.5-5.8,6.7-.3,2.2,1.5,7.3.5,9.1-1.2.8-2.4,1.7-3.7,2.5l-1.5-.9a27.184,27.184,0,0,0-2.5-1.1c-3.1-.7-5.6,1.2-6.7,4-1.9,4.8,1.5,8.8,2.5,13.3,1.3,6.2-3.4,5.5-7.5,6.2a7.8,7.8,0,0,0-4.5,2.5c-6.3,7.3,1,15.4,7,19.6,1.5,1.1,3-1.5,1.4-2.6Z" fill="#e8e8e8"/>
          </g>
        </g>
        <g id="Group_249" data-name="Group 249">
          <g id="Group_248" data-name="Group 248">
            <path id="Path_208" data-name="Path 208" d="M615.4,185c-3.3-3.8-5.8-9,.6-11,1.6-.5,3.4-.3,4.9-1.3,3.3-2.3,1.9-5.4,1.3-8.6-.3-1.8-1-4.2.1-6,.8-1.3,3.7-1.8,5.2-2.1,2.1-.5,4.3-.8,6.1-2a5.988,5.988,0,0,0,1.9-8.2c-1-1.6-3.6-.1-2.6,1.5,3,4.8-11,6.1-13.4,9.6-2.8,4.1,3.1,11.3-1.8,13.9-1.9,1-4.3.3-6.1,1.6a6.736,6.736,0,0,0-2.6,3.8c-1.1,4.3,1.8,8,4.4,11,1.2,1.4,3.3-.7,2-2.2Z" fill="#e8e8e8"/>
          </g>
        </g>
        <g id="Group_251" data-name="Group 251">
          <g id="Group_250" data-name="Group 250">
            <path id="Path_209" data-name="Path 209" d="M497.3,161.3c-2.6-1.8-2.9-5-2.1-7.8.5-1.9,2.9-7.1,5.2-7.3,3.8-.4,5.7,4.4,6.7,7.2a28.665,28.665,0,0,1,1.3,8.2,1.5,1.5,0,0,0,3,0c-.1-5.6-3.8-22.8-13-17.8-3.5,1.9-6.1,7.4-6.5,11.2a9.363,9.363,0,0,0,3.9,8.9c1.5,1.1,3-1.5,1.5-2.6Z" fill="#e8e8e8"/>
          </g>
        </g>
        <g id="Group_253" data-name="Group 253">
          <g id="Group_252" data-name="Group 252">
            <path id="Path_210" data-name="Path 210" d="M496.1,162.9c-3.6.9-7.2,1.8-10.9,2.7-2.1.5-5.7.7-7.4,2.3-2.9,2.7-2.1,11-2.1,14.5a1.471,1.471,0,0,0,1.9,1.4c.5-.1,1-.3,1.6-.4,2.6-1.4,3.9-.5,4,2.5,2,2,2,3.2,0,3.4a9.366,9.366,0,0,1-3.7.7,1.538,1.538,0,0,0-1.5,1.5c.2,6.4.7,12.7,1.4,19.1.2,1.9,3.2,1.9,3,0-.7-6.4-1.2-12.7-1.4-19.1l-1.5,1.5c4.2-.5,10.9-2.2,10-7.9-1-6.1-8.4-5.4-12.6-4.2a23.068,23.068,0,0,0,1.9,1.4c0-2.3,0-4.5.2-6.8.3-3.6.1-4.9,3.4-6.2,4.5-1.8,9.8-2.4,14.5-3.6,1.9-.3,1.1-3.2-.8-2.8Z" fill="#e8e8e8"/>
          </g>
        </g>
        <g id="Group_255" data-name="Group 255">
          <g id="Group_254" data-name="Group 254">
            <path id="Path_211" data-name="Path 211" d="M510.5,163.8a77,77,0,0,1,12.7.3c4,.5,3.8,1.1,4.4,4.6.4,2.2.5,4.5.7,6.7.8,8.6,1.4,17.2,1.9,25.8.1,1.9,3.1,1.9,3,0-.6-11.7-1-23.7-2.9-35.3-.5-2.9-1-3.8-4-4.3a64.442,64.442,0,0,0-15.8-.7c-1.9,0-1.9,3,0,2.9Z" fill="#e8e8e8"/>
          </g>
        </g>
        <g id="Group_257" data-name="Group 257">
          <g id="Group_256" data-name="Group 256">
            <path id="Path_212" data-name="Path 212" d="M481.6,212.7c5.9-1,11.8-2,17.6-3,6.7-1.1,13.1-.6,19.8-1.1,3.1-.3,17.8-1.8,12.4-7.9-1.3-1.4-3.4.7-2.1,2.1.8.9-12.8,2.9-13.1,2.9-4.2.1-8.4-.1-12.6.4-7.6.9-15.2,2.5-22.8,3.8-1.9.2-1.1,3.1.8,2.8Z" fill="#e8e8e8"/>
          </g>
        </g>
      </g>
      <g id="robot" transform="translate(-51.489 -169.604)">
        <path id="Path_213" data-name="Path 213" d="M1013.647,788.6c-.582,20.384-1.165,40.768-1.747,61.347,25.82,1.747,51.446,3.3,77.266,5.047v-62.9C1063.928,790.93,1038.885,789.765,1013.647,788.6Z" transform="translate(26.718)" fill="#fff" stroke="#161616" stroke-miterlimit="10" stroke-width="2"/>
        <path id="Path_214" data-name="Path 214" d="M1041.161,907.371c3.495,22.52,5.047,41.157,5.824,54.552,2.524,44.457.583,54.746-3.3,62.9-9.513,20-26.791,28.344-25.238,31.062,1.165,1.747,9.707-.194,47.757-20.19-2.329-44.263-4.465-88.331-6.795-132.594C1053.392,904.653,1047.374,906.012,1041.161,907.371Z" transform="translate(32.79 107.784)" fill="#fff" stroke="#161616" stroke-miterlimit="10" stroke-width="2"/>
        <path id="Path_215" data-name="Path 215" d="M1004.2,831.8c33,.194,66.006.582,99.009.777-3.689,44.263-7.183,88.331-10.872,132.594-28.732-2.33-57.658-4.465-86.39-6.795Q1004.782,895.185,1004.2,831.8Z" transform="translate(19.47 40.666)" fill="#fff" stroke="#161616" stroke-miterlimit="10" stroke-width="2"/>
        <path id="Path_216" data-name="Path 216" d="M1026.171,904.971a205.59,205.59,0,0,1,15.142,62.123c1.747,21.743,2.912,38.439-7.571,49.5-3.883,4.271-10.289,8.348-22.714,16.7-11.066,7.377-16.307,10.095-15.919,10.871.582,1.165,11.26-1.165,57.852-17.666a272.66,272.66,0,0,0,5.047-59.6,268.562,268.562,0,0,0-9.318-62.9C1041.314,904.388,1033.743,904.582,1026.171,904.971Z" transform="translate(10.894 108.632)" fill="#fff" stroke="#161616" stroke-miterlimit="10" stroke-width="2"/>
        <g id="Group_259" data-name="Group 259" transform="translate(1048.959 1132.412)">
          <g id="Group_258" data-name="Group 258">
            <path id="Path_217" data-name="Path 217" d="M1022.223,998.7a179.87,179.87,0,0,0,16.5-15.725c6.018-6.6,14.948-16.7,24.267-7.959q.291-2.33.583-4.659c-13.784,6.795-27.373,13.589-41.157,20.19-2.718,1.359-1.359,5.436,1.553,5.436,13.007.194,21.161-22.52,34.556-18.249,3.495,1.165,5.047-4.465,1.553-5.63-5.824-1.747-10.289-.194-15.143,3.3-5.63,4.077-13.589,14.754-20.772,14.754.582,1.747.971,3.689,1.553,5.436,13.784-6.795,27.373-13.589,41.156-20.19,1.747-.777,1.941-3.3.583-4.659-5.242-4.853-14.56-6.6-21.161-3.494-4.853,2.135-7.959,7.765-11.454,11.454a210.467,210.467,0,0,1-16.5,15.725c-3.106,2.524.971,6.795,3.883,4.271Z" transform="translate(-1017.227 -965.7)" fill="#161616"/>
          </g>
        </g>
        <g id="Group_261" data-name="Group 261" transform="translate(1075.067 1129.113)">
          <g id="Group_260" data-name="Group 260">
            <path id="Path_218" data-name="Path 218" d="M1033.441,970.018a46.329,46.329,0,0,1,16.89,3.689c3.3,1.553,6.407-3.494,2.912-5.047a50.158,50.158,0,0,0-19.8-4.659c-3.689.194-3.689,6.018,0,6.018Z" transform="translate(-1030.675 -964)" fill="#161616"/>
          </g>
        </g>
        <g id="Group_263" data-name="Group 263" transform="translate(1044.014 1122.742)">
          <g id="Group_262" data-name="Group 262">
            <path id="Path_219" data-name="Path 219" d="M1016.661,966.312a22.761,22.761,0,0,1,11.454,6.989c2.524,2.718,6.6-1.359,4.077-4.077a29.4,29.4,0,0,0-14.172-8.348c-3.3-1.165-4.853,4.465-1.359,5.436Z" transform="translate(-1014.679 -960.719)" fill="#161616"/>
          </g>
        </g>
        <g id="Group_265" data-name="Group 265" transform="translate(1010.432 1127.157)">
          <g id="Group_264" data-name="Group 264">
            <path id="Path_220" data-name="Path 220" d="M1001.495,987.662c6.018-4.465,12.231-8.542,18.637-12.425,2.912-1.747,6.018-4.077,9.124-5.047,4.854-1.747,7.765-.582,12.23,1.359V966.5c-6.212,2.718-13.2,2.524-19.607,5.242-6.212,2.524-12.036,8.736-18.443,9.9l2.33,5.242c11.454-5.63,24.267-6.6,35.721-12.23,3.3-1.747.388-6.6-2.912-5.047-11.454,5.63-24.267,6.6-35.721,12.23-3.106,1.553-.777,5.824,2.33,5.242,6.989-1.165,12.619-7.571,19.219-10.1s13.784-2.718,20.19-5.436c1.941-.776,1.941-4.271,0-5.047-7.377-3.3-10.677-5.242-18.055-1.359a213.259,213.259,0,0,0-27.567,17.472c-3.495,2.135-.583,7.183,2.524,5.047Z" transform="translate(-997.381 -962.992)" fill="#161616"/>
          </g>
        </g>
        <g id="Group_267" data-name="Group 267" transform="translate(1044.22 1036.251)">
          <g id="Group_266" data-name="Group 266">
            <path id="Path_221" data-name="Path 221" d="M1018.308,923.22a17.175,17.175,0,0,1,14.172.777c3.3,1.747,6.212-3.3,2.912-5.047a22.38,22.38,0,0,0-18.637-1.359c-3.494,1.359-1.941,6.989,1.553,5.63Z" transform="translate(-1014.785 -916.167)" fill="#161616"/>
          </g>
        </g>
        <g id="Group_269" data-name="Group 269" transform="translate(1049.83 1056.845)">
          <g id="Group_268" data-name="Group 268">
            <path id="Path_222" data-name="Path 222" d="M1020.441,932.648a14.269,14.269,0,0,1,11.066,3.3c2.912,2.33,6.989-1.747,4.077-4.077a21.418,21.418,0,0,0-15.143-5.047c-3.688.194-3.688,6.018,0,5.824Z" transform="translate(-1017.675 -926.775)" fill="#161616"/>
          </g>
        </g>
        <g id="Group_271" data-name="Group 271" transform="translate(1051.995 1081.036)">
          <g id="Group_270" data-name="Group 270">
            <path id="Path_223" data-name="Path 223" d="M1021.527,945.185a9.735,9.735,0,0,1,9.319,4.077c1.941,3.106,6.989.194,5.047-2.912a14.486,14.486,0,0,0-14.172-6.989,2.986,2.986,0,0,0-2.912,2.912,2.7,2.7,0,0,0,2.718,2.912Z" transform="translate(-1018.79 -939.236)" fill="#161616"/>
          </g>
        </g>
        <g id="Group_273" data-name="Group 273" transform="translate(1075.411 1034.926)">
          <g id="Group_272" data-name="Group 272">
            <path id="Path_224" data-name="Path 224" d="M1035.216,922.5a10.011,10.011,0,0,1,11.26.971c2.912,2.33,6.989-1.747,4.077-4.077a16.177,16.177,0,0,0-18.249-1.941c-3.3,1.941-.388,6.989,2.912,5.047Z" transform="translate(-1030.852 -915.484)" fill="#161616"/>
          </g>
        </g>
        <g id="Group_275" data-name="Group 275" transform="translate(1078.561 1072.252)">
          <g id="Group_274" data-name="Group 274">
            <path id="Path_225" data-name="Path 225" d="M1036.989,941.1a8.347,8.347,0,0,1,9.124,1.553c2.718,2.524,6.989-1.553,4.077-4.077a14.417,14.417,0,0,0-16.307-2.33c-3.3,1.359-.194,6.406,3.106,4.853Z" transform="translate(-1032.474 -934.711)" fill="#161616"/>
          </g>
        </g>
        <g id="Group_277" data-name="Group 277" transform="translate(1079.612 1102.551)">
          <g id="Group_276" data-name="Group 276">
            <path id="Path_226" data-name="Path 226" d="M1037.256,957.466a8.456,8.456,0,0,1,9.9.388c2.912,2.33,6.989-1.747,4.077-4.077a14.025,14.025,0,0,0-16.89-1.165c-3.106,1.941-.194,6.989,2.912,4.853Z" transform="translate(-1033.016 -950.318)" fill="#161616"/>
          </g>
        </g>
        <path id="Path_227" data-name="Path 227" d="M1063.248,832.1,1051.6,966.053" transform="translate(64.09 40.949)" fill="none" stroke="#161616" stroke-miterlimit="10" stroke-width="6"/>
        <path id="Path_228" data-name="Path 228" d="M1004.8,897.9c32.42,2.33,64.841,4.465,97.262,6.795" transform="translate(20.035 102.89)" fill="none" stroke="#161616" stroke-miterlimit="10" stroke-width="6"/>
        <path id="Path_229" data-name="Path 229" d="M1056.224,789.5c-.776,22.131-1.747,44.069-2.524,66.2" transform="translate(66.067 0.847)" fill="none" stroke="#161616" stroke-miterlimit="10" stroke-width="6"/>
        <g id="Group_279" data-name="Group 279" transform="translate(1119.211 893.006)">
          <g id="Group_278" data-name="Group 278">
            <path id="Path_230" data-name="Path 230" d="M1060.57,848.631c18.055-3.3,37.274,10.872,38.633,29.509,1.941,23.3-24.655,27.373-42.127,24.849-3.688-.582-5.241,5.047-1.553,5.63,21.355,3.106,51.446-2.912,49.5-30.479-1.553-22.714-24.267-39.215-46.01-35.138-3.688.582-2.136,6.212,1.553,5.63Z" transform="translate(-1053.414 -842.38)" fill="#161616"/>
          </g>
        </g>
        <g id="Group_281" data-name="Group 281" transform="translate(1120 958.23)">
          <g id="Group_280" data-name="Group 280">
            <path id="Path_231" data-name="Path 231" d="M1055.917,881.651a20.475,20.475,0,0,1,15.725,14.366c.971,3.689,6.6,2.135,5.63-1.553a25.374,25.374,0,0,0-19.608-18.443c-3.883-.583-5.436,4.853-1.747,5.63Z" transform="translate(-1053.82 -875.978)" fill="#161616"/>
          </g>
        </g>
        <g id="Group_283" data-name="Group 283" transform="translate(1118.668 957.722)">
          <g id="Group_282" data-name="Group 282">
            <path id="Path_232" data-name="Path 232" d="M1053.651,879.956a33.62,33.62,0,0,1,6.018,22.714c-.194,3.689,5.63,3.689,5.824,0a40.148,40.148,0,0,0-6.989-25.626c-1.941-3.106-6.989-.194-4.853,2.912Z" transform="translate(-1053.134 -875.716)" fill="#161616"/>
          </g>
        </g>
        <g id="Group_285" data-name="Group 285" transform="translate(983.517 894.855)">
          <g id="Group_284" data-name="Group 284">
            <path id="Path_233" data-name="Path 233" d="M1023.476,845.017c-12.813-8.154-36.3,15.337-39.215,26.791-5.824,23.3,24.073,20.578,36.5,28.344,3.106,1.941,6.018-3.106,2.912-5.047-8.93-5.63-22.131-3.494-29.9-10.483-9.513-8.542-.777-18.831,5.824-24.849,3.494-3.106,15.337-13.4,20.967-9.9,3.106,2.33,6.213-2.718,2.912-4.853Z" transform="translate(-983.517 -843.332)" fill="#161616"/>
          </g>
        </g>
        <g id="Group_287" data-name="Group 287" transform="translate(1002.029 948.746)">
          <g id="Group_286" data-name="Group 286">
            <path id="Path_234" data-name="Path 234" d="M1011.393,871.3a36.81,36.81,0,0,0-13.589,8.93c-2.912,3.106-6.6,7.959-3.689,12.23,2.135,3.106,7.183.194,5.047-2.912-1.359-1.941,3.689-6.212,5.047-7.377a25,25,0,0,1,8.736-5.242c3.495-1.359,2.136-6.989-1.553-5.63Z" transform="translate(-993.053 -871.092)" fill="#161616"/>
          </g>
        </g>
        <g id="Group_289" data-name="Group 289" transform="translate(1013.997 951.704)">
          <g id="Group_288" data-name="Group 288">
            <path id="Path_235" data-name="Path 235" d="M1003.261,873.944a25.39,25.39,0,0,0-3.495,19.025c.777,3.689,6.406,2.135,5.63-1.553a18.487,18.487,0,0,1,2.912-14.56c2.135-3.106-2.912-6.018-5.047-2.912Z" transform="translate(-999.217 -872.616)" fill="#161616"/>
          </g>
        </g>
        <g id="Group_291" data-name="Group 291" transform="translate(1035.845 890.084)">
          <g id="Group_290" data-name="Group 290">
            <path id="Path_236" data-name="Path 236" d="M1011.109,843.641a313.569,313.569,0,0,0,.194,42.71c.388,3.689,6.212,3.689,5.824,0a285.139,285.139,0,0,1-.194-42.71c.388-3.688-5.436-3.688-5.824,0Z" transform="translate(-1010.471 -840.875)" fill="#161616"/>
          </g>
        </g>
        <g id="Group_293" data-name="Group 293" transform="translate(1037.988 888.575)">
          <g id="Group_292" data-name="Group 292">
            <path id="Path_237" data-name="Path 237" d="M1014.341,845.926c20.578,1.165,40.962,1.941,61.541,2.33l-2.912-2.912c-.583,14.56-1.165,29.314-1.941,43.874-.194,3.689,5.63,3.689,5.824,0,.583-14.56,1.165-29.314,1.941-43.874a2.986,2.986,0,0,0-2.912-2.912c-20.578-.388-40.962-1.165-61.541-2.33-3.688-.194-3.688,5.63,0,5.824Z" transform="translate(-1011.575 -840.098)" fill="#161616"/>
          </g>
        </g>
        <g id="Group_295" data-name="Group 295" transform="translate(1036.443 932.342)">
          <g id="Group_294" data-name="Group 294">
            <path id="Path_238" data-name="Path 238" d="M1012.761,868.384c8.542,2.33,18.054,1.747,26.6,2.33,10.483.582,21.161,1.359,31.644,1.941,3.689.194,3.689-5.63,0-5.824l-27.956-1.747c-9.318-.582-19.8,0-28.926-2.33-3.3-.97-4.853,4.659-1.359,5.63Z" transform="translate(-1010.779 -862.642)" fill="#161616"/>
          </g>
        </g>
        <g id="Group_297" data-name="Group 297" transform="translate(1044.731 963.745)">
          <g id="Group_296" data-name="Group 296">
            <path id="Path_239" data-name="Path 239" d="M1015.342,883.248c3.494,7.571,11.066.971,16.89,3.689,2.718,1.165,2.135,2.912,5.824,3.106,4.271.194,14.754-8.348,16.89-.388a3.015,3.015,0,0,0,4.853,1.359c1.941-.582,4.077-1.165,6.018-1.553,2.329,2.912,6.6-1.359,4.077-4.077-4.465-5.242-10.095-2.33-14.366,1.553a45.328,45.328,0,0,1,4.853,1.359c-1.747-6.795-8.93-11.26-15.725-8.154-3.3,1.553-3.689,4.465-8.736,2.524-.971-.388-1.359-1.941-2.329-2.33-2.135-.777-13.4.388-13.4.194-1.359-3.689-6.406-.776-4.853,2.718Z" transform="translate(-1015.049 -878.818)" fill="#161616"/>
          </g>
        </g>
        <g id="Group_299" data-name="Group 299" transform="translate(1049.766 807.198)">
          <g id="Group_298" data-name="Group 298">
            <path id="Path_240" data-name="Path 240" d="M1023.19,806.373c.388-2.135,2.912-2.718,4.659-1.941,2.524.971,3.883,3.883,5.047,6.018,1.553,3.3,6.6.388,5.047-2.912-2.135-4.271-5.436-8.736-10.677-9.318-4.271-.388-8.736,2.135-9.513,6.406-.971,3.883,4.659,5.436,5.436,1.747Z" transform="translate(-1017.642 -798.18)" fill="#161616"/>
          </g>
        </g>
        <g id="Group_301" data-name="Group 301" transform="translate(1085.363 809.683)">
          <g id="Group_300" data-name="Group 300">
            <path id="Path_241" data-name="Path 241" d="M1041.65,807.886a2.935,2.935,0,0,1,4.077-2.33c2.33.776,3.3,3.689,3.689,5.824.583,3.689,6.212,2.135,5.63-1.553-.777-4.659-3.883-9.513-8.93-10.289-4.465-.582-9.319,2.135-10.095,6.795-.583,3.689,5.047,5.242,5.63,1.553Z" transform="translate(-1035.978 -799.46)" fill="#161616"/>
          </g>
        </g>
        <g id="Group_303" data-name="Group 303" transform="translate(1057.864 823.257)">
          <g id="Group_302" data-name="Group 302">
            <path id="Path_242" data-name="Path 242" d="M1022.176,810.816c6.6,11.648,22.326,13.4,30.867,2.912,2.33-2.912-1.747-6.989-4.077-4.077-6.212,7.571-16.889,6.989-21.743-1.747-1.747-3.3-6.795-.388-5.048,2.912Z" transform="translate(-1021.814 -806.452)" fill="#161616"/>
          </g>
        </g>
      </g>
      <g id="leg_l">
        <path id="Path_263" data-name="Path 263" d="M762.1,964.1q-28.5,34.95-56.9,69.8c22.3,78.4,34.9,99,42.4,97.9,5.4-.8,8-12.5,10.9-25.6a170.74,170.74,0,0,0-1.5-78.3c12-13.4,23.9-26.9,35.9-40.3C782.6,979.8,772.4,972,762.1,964.1Z" fill="#161616" stroke="#161616" stroke-miterlimit="10" stroke-width="2"/>
        <path id="Path_264" data-name="Path 264" d="M692,844.1c11.9,9.2,23.3,5.9,46.9,9.9,20.1,3.4,42.7,10.9,66.7,25.9q-38.4,45-76.6,95.1c-6.1,8.1-12.2,16.2-18.1,24.3a186.653,186.653,0,0,1,34.4,11.7,184.058,184.058,0,0,1,30.8,17.6c38.1-33.2,72.1-65.3,102.4-95.6,14-14,33.8-35.4,36.9-65.7a38.549,38.549,0,0,0,.2-4.7c-.7-50.3-64-86.7-102.5-100.1C771,747.9,698.6,740,678.4,774.9,666.5,795.5,673.5,829.8,692,844.1Z" fill="#333"/>
        <path id="Path_265" data-name="Path 265" d="M765.9,793.8a171.475,171.475,0,0,1-14.4,56.8c-3.3,1.3-6.5,2.6-9.8,3.9,21.5,8.5,43.1,17,64.6,25.5q-24,27.45-48.3,57.5-25.05,30.9-47.7,60.7c10.7,3.5,21.3,7,32,10.4q57.45-63.3,114.9-126.7c4-11.5,3.8-20.5,2.6-26.8C854.3,824.3,816.6,799.2,765.9,793.8Z" fill="#6d6c6c" opacity="0.26"/>
        <path id="Path_266" data-name="Path 266" d="M806.1,879.8c3.5,5.3,6.9,10.7,10.4,16q-44.7,53.85-89.4,107.6c-5.3-1.4-10.7-2.9-16-4.3,19.1-26.2,39.7-53.1,62-80.2Q789.75,898.65,806.1,879.8Z" fill="#6d6c6c" opacity="0.23"/>
      </g>
      <g id="leg_r">
        <path id="Path_267" data-name="Path 267" d="M706.6,926.1c29.5,5.4,59.1,10.7,88.6,16.1,34.1,74.4,37.9,98.4,31.5,102.5-4.6,2.9-14.2-4.3-24.9-12.4A171.371,171.371,0,0,1,752,971.5c-17.8-2.4-35.6-4.9-53.4-7.3C701.2,951.5,703.9,938.8,706.6,926.1Z" fill="#161616" stroke="#161616" stroke-miterlimit="10" stroke-width="2"/>
        <path id="Path_268" data-name="Path 268" d="M645.8,760.4C592,776.2,559.2,809,538.1,830.6c-28.5,29.3-63.5,65.2-53.4,91.7,5.2,13.5,21,21.8,94.6,34.6,55.6,9.7,103.8,14.9,141.4,17.8,4.7-17.2,9.4-34.3,14-51.5Q678,904.9,621.4,886.7c23.2-4.9,47.6-10.7,73-17.8q28.95-8.1,55.2-16.9c16.2-32.7,19.7-68,2.8-88C728.8,736,675.9,751.5,645.8,760.4Z" fill="#2d2d2d"/>
        <path id="Path_269" data-name="Path 269" d="M765.5,795a140.066,140.066,0,0,1-6.8,36.6,146,146,0,0,1-9.2,22c-2.7.2-5.4.5-8.1.7q-34.2,11.25-72.8,21.2c-16.6,4.3-32.8,8-48.5,11.4q56.85,17.85,113.7,35.6-1.2,6.15-3,12.9c-1.4,5.2-3,10-4.5,14.4L569.4,911.1c-2.4-2.9-10.3-13.4-9.1-27.3,1.3-15.1,15.7-25.8,34.1-35.6C647.6,820,736.8,800.9,765.5,795Z" fill="#6d6c6c" opacity="0.29"/>
        <path id="Path_270" data-name="Path 270" d="M530.7,993.8" fill="#6d6c6c"/>
        <path id="Path_271" data-name="Path 271" d="M593.2,889c9.5-.7,19.1-1.4,28.6-2.2q55.95,18.6,111.9,37.3c-1.6,5.9-3.2,11.9-4.8,17.8Q661.1,915.35,593.2,889Z" fill="#6d6c6c" opacity="0.24"/>
      </g>
      <g id="torso">
        <path id="Path_272" data-name="Path 272" d="M631.7,533.8a186.044,186.044,0,0,1,74.7-24.7c52.4-5.5,92.6,13.3,108.5,21.8-2.9,39.3-7.4,70.7-11,92.3-4.3,25.8-7.8,40.1-9.4,63.8a332.609,332.609,0,0,0,2.8,70.1,238.076,238.076,0,0,1-149.4-2.8,348.727,348.727,0,0,0,.8-83.5c-2.5-21.5-5.9-32-10-58A570.469,570.469,0,0,1,631.7,533.8Z" fill="#fff" stroke="#161616" stroke-miterlimit="10" stroke-width="2"/>
        <path id="Path_273" data-name="Path 273" d="M739.9,521a220.259,220.259,0,0,1,6.1,30.7c1.1,8.5,5.6,47-8.4,97.8-8.6,31.3-17.7,64.4-47.5,91.6a130.756,130.756,0,0,1-25.7,18.4,239.9,239.9,0,0,0,131.3-2.8c-1-7.5-2.3-18.8-2.8-32.4-.4-11.9-.4-30.9,7.8-84.4,6.5-42.1,11.1-60.2,13.4-98.3.3-4.4.4-8.1.6-10.6a143.269,143.269,0,0,0-28.5-12.8,137.236,137.236,0,0,0-28.5-6.1Z" fill="#6d6c6c" opacity="0.14"/>
        <path id="Path_274" data-name="Path 274" d="M811.8,547.3A550.9,550.9,0,0,1,793,622.4c-17,52-28.9,87-61,112.6-19.9,15.9-40.6,22.6-53.9,25.8a190.557,190.557,0,0,0,55.7,7A195.963,195.963,0,0,0,796,756.1a289.92,289.92,0,0,1-3.5-52.8c.7-28.9,5.4-46.3,10.6-78C806,606.7,809.7,580.1,811.8,547.3Z" fill="#6d6c6c" opacity="0.17"/>
      </g>
      <g id="hand_r">
        <path id="Path_275" data-name="Path 275" d="M631.1,533.3a175.274,175.274,0,0,0-44.3,44.3c-32.9,47.8-32,98.5-30.7,117.2a188.331,188.331,0,0,0,34.3,57.9c10.5,12.1,25.9,29.5,52.2,40.7a118.446,118.446,0,0,0,22.1,7.1c4.8-4.3,9.5-8.6,14.3-12.9-15.4-18-30.9-36.9-46.4-56.4q-17.85-22.35-34.3-44.3A124.892,124.892,0,0,1,614.7,629a122.953,122.953,0,0,1,23.6-29.3Q634.7,566.55,631.1,533.3Z" fill="#fff" stroke="#161616" stroke-miterlimit="10" stroke-width="2"/>
        <path id="Path_276" data-name="Path 276" d="M633,555.6c-28.8,32.5-42.5,63.3-49.3,82.7-11.9,33.6-9.4,51.2-7.6,59.6,1.5,6.6,4.8,17.9,16.9,35.1,10.5,14.9,32.6,41.6,74.7,63.6,3.7-3.6,7.4-7.1,11.1-10.7q-17.85-20.1-36-42.2-23.85-28.95-44.4-56.9A126.843,126.843,0,0,1,638,599.2C636.2,584.7,634.6,570.2,633,555.6Z" fill="#6d6c6c" opacity="0.13"/>
        <path id="Path_277" data-name="Path 277" d="M598.3,688.1a150.167,150.167,0,0,0,13.3,42.7c17.2,35,44.1,54.3,57.8,62.7,2.7-2.4,5.3-4.7,8-7.1Q637.8,737.2,598.3,688.1Z" fill="#6d6c6c" opacity="0.16"/>
      </g>
      <g id="hand_l">
        <path id="Path_278" data-name="Path 278" d="M816.4,531.5c14.6,8.9,33.4,22.8,49.7,43.5,37,46.9,35.9,96.7,34.5,115.1A183.477,183.477,0,0,1,862.1,747c-11.8,11.8-29.1,28.9-58.6,40a153.712,153.712,0,0,1-24.9,7c-5.3-4.2-10.7-8.4-16-12.6,17.2-17.7,34.7-36.2,52.1-55.4q19.95-22.05,38.5-43.5a111.57,111.57,0,0,0-18.4-56.9,126.252,126.252,0,0,0-26.5-28.8C811.1,575,813.8,553.3,816.4,531.5Z" fill="#fff" stroke="#161616" stroke-miterlimit="10" stroke-width="2"/>
        <path id="Path_279" data-name="Path 279" d="M815.7,555.8a232.925,232.925,0,0,1,43.5,64.3c6.4,14.1,16.8,37,17,58.6.7,65.7-92.3,110.9-97.7,113.5-5.3-3.4-10.5-6.7-15.8-10.1q45.15-49.5,90.2-99a120.718,120.718,0,0,0-15.1-52.3,118.56,118.56,0,0,0-30.3-35.3C810.3,582.3,813,569.1,815.7,555.8Z" fill="#6d6c6c" opacity="0.16"/>
        <path id="Path_280" data-name="Path 280" d="M853.9,683.4a140.392,140.392,0,0,1-7.9,28c-17.6,44.4-53.2,68.7-71.2,79.1-4.3-2.8-8.5-5.6-12.8-8.4Q807.9,732.75,853.9,683.4Z" fill="#6d6c6c" opacity="0.12"/>
      </g>
      <g id="laptop">
        <rect id="Rectangle_175" data-name="Rectangle 175" width="245.9" height="155.7" transform="translate(593.5 690.8)" fill="#fff" stroke="#161616" stroke-miterlimit="10" stroke-width="2"/>
        <g id="Group_345" data-name="Group 345">
          <g id="Group_344" data-name="Group 344">
            <path id="Path_281" data-name="Path 281" d="M712.9,783.5c-13,1.6-19.3-14.2-15.9-24.7,3.3-10.4,15.6-15.3,25.6-11.7,9.9,3.6,14.7,15.7,11.2,25.4-3.9,10.8-17.5,15.2-27.5,10.4-1.7-.8-3.3,1.8-1.5,2.6a23.764,23.764,0,0,0,26.9-4.3c6.9-6.9,7.9-17.8,3.6-26.3-9.8-19.4-40.1-13.2-42.2,8.1-1.1,11.4,7.1,25.1,19.8,23.6,1.9-.3,1.9-3.3,0-3.1Z" fill="#161616"/>
          </g>
        </g>
        <path id="Path_282" data-name="Path 282" d="M685.8,690.4c33.3,11.6,56,41.3,56.7,73.2.9,40-32.7,77.6-78.5,81.4l175,1.5q-.3-78.3-.5-156.5Q762.15,690,685.8,690.4Z" fill="#6d6c6c" opacity="0.14"/>
        <path id="Path_283" data-name="Path 283" d="M839,689.9a257.817,257.817,0,0,1-12.5,72.9c-7.8,23.7-13.4,41-29.5,56.3-21.9,21-49.2,24.9-61.2,25.9q51.15.45,102.3,1,.15-44.55.5-89.2C838.6,734.5,838.8,712.2,839,689.9Z" fill="#6d6c6c" opacity="0.26"/>
      </g>
      <g id="head">
        <path id="Path_284" data-name="Path 284" d="M709.2,453.1c-5.5,6.7-.2,14.9-1.2,36.8a136.466,136.466,0,0,1-3.7,25.6,60.169,60.169,0,0,0,23.7,5.6,60.874,60.874,0,0,0,28.1-6.2,80.967,80.967,0,0,1-6.9-20c-4.5-22.4,3.5-32.9-3.1-41.2C738.4,444.1,716.6,444,709.2,453.1Z" fill="#fff" stroke="#161616" stroke-miterlimit="10" stroke-width="2"/>
        <path id="Path_285" data-name="Path 285" d="M674.3,356.9a64.228,64.228,0,0,0-2.5,37.1c-.6.1-12.3,2.6-15.5,11.6-3.2,9.1,3.4,22,17.2,26.2,5,12.2,17.1,35.8,42.6,48.7a79.432,79.432,0,0,0,12.5,5,98.725,98.725,0,0,0,14.4-6.9,101.3,101.3,0,0,0,30-26.2,92.05,92.05,0,0,0,13.9-27,16.121,16.121,0,0,0,9.9-1.3c8.6-4.4,12.9-18.1,6.9-27-5-7.4-14.7-7.7-15.9-7.7,1.3-5.2,5.3-23.9-4.8-42.4-11.6-21.3-36.5-32.5-59.9-29.3C688.5,322.2,674.9,355.3,674.3,356.9Z" fill="#fff" stroke="#161616" stroke-miterlimit="10" stroke-width="2"/>
        <g id="Group_347" data-name="Group 347">
          <g id="Group_346" data-name="Group 346">
            <path id="Path_286" data-name="Path 286" d="M707.9,479.6c6.1,3.6,12.8,9.2,20.3,8.6,6.2-.5,13.1-4.1,17.8-7.9,1.5-1.2-.6-3.3-2.1-2.1-4.4,3.5-11.5,7.2-17.3,7.1-6.1-.1-12.3-5.2-17.3-8.3-1.5-1-3,1.6-1.4,2.6Z" fill="#161616"/>
          </g>
        </g>
        <g id="Group_349" data-name="Group 349">
          <g id="Group_348" data-name="Group 348">
            <path id="Path_287" data-name="Path 287" d="M707.5,480.9c5.7,4.9,12.2,10.4,20.2,10,7.8-.4,15.1-5.6,20.2-11.2,1.3-1.4-.8-3.5-2.1-2.1-4.4,4.8-10.6,9.5-17.4,10.2-7.5.7-13.5-4.4-18.8-9-1.4-1.3-3.5.8-2.1,2.1Z" fill="#161616"/>
          </g>
        </g>
        <g id="Group_351" data-name="Group 351">
          <g id="Group_350" data-name="Group 350">
            <path id="Path_288" data-name="Path 288" d="M711.3,481.5h0a1.535,1.535,0,0,0-2.4-.4l-.1.1a1.45,1.45,0,0,0,0,2.1c11,10.5,31.2,13.9,39.1-2.2.8-1.7-1.7-3.3-2.6-1.5-7,14.4-24.7,10.9-34.3,1.6v2.1l.1-.1-2.4-.3v.1c1,1.6,3.6.1,2.6-1.5Z" fill="#161616"/>
          </g>
        </g>
        <g id="Group_353" data-name="Group 353">
          <g id="Group_352" data-name="Group 352">
            <path id="Path_289" data-name="Path 289" d="M723.3,389a200.216,200.216,0,0,0,2,48.3,1.363,1.363,0,0,0,1.8,1,15.526,15.526,0,0,0,8.8-7.1,1.5,1.5,0,0,0-2.6-1.5,12.033,12.033,0,0,1-7,5.7c.6.3,1.2.7,1.8,1a193.643,193.643,0,0,1-1.9-47.5c.3-1.9-2.7-1.9-2.9.1Z" fill="#161616"/>
          </g>
        </g>
        <path id="Path_290" data-name="Path 290" d="M705.5,404.9c.2.9,1.7,6.5,0,7.4s-6.5-2.7-8-7.4c-1.2-4-.2-9,1.7-9.4C701.2,395,704.3,400.5,705.5,404.9Z" fill="#161616" stroke="#161616" stroke-miterlimit="10" stroke-width="1"/>
        <path id="Path_291" data-name="Path 291" d="M757.1,404.9c.2.9,1.7,6.5,0,7.4s-6.5-2.7-8-7.4c-1.2-4-.2-9,1.7-9.4C752.8,395,755.9,400.5,757.1,404.9Z" fill="#161616" stroke="#161616" stroke-miterlimit="10" stroke-width="1"/>
        <g id="Group_355" data-name="Group 355">
          <g id="Group_354" data-name="Group 354">
            <path id="Path_292" data-name="Path 292" d="M719.7,450.5c12.2,5.2,23.3-2.1,32.3-10,1.5-1.3-.7-3.4-2.1-2.1-7.8,6.8-17.8,14.1-28.6,9.5-1.9-.7-3.4,1.9-1.6,2.6Z" fill="#161616"/>
          </g>
        </g>
        <g id="Group_357" data-name="Group 357">
          <g id="Group_356" data-name="Group 356">
            <path id="Path_293" data-name="Path 293" d="M754.9,420.8a1.5,1.5,0,0,0,0-3,1.5,1.5,0,0,0,0,3Z" fill="#161616"/>
          </g>
        </g>
        <g id="Group_359" data-name="Group 359">
          <g id="Group_358" data-name="Group 358">
            <path id="Path_294" data-name="Path 294" d="M766,415.2l.3-.3a1.485,1.485,0,0,0-2.1-2.1l-.3.3a1.485,1.485,0,1,0,2.1,2.1Z" fill="#161616"/>
          </g>
        </g>
        <g id="Group_361" data-name="Group 361">
          <g id="Group_360" data-name="Group 360">
            <path id="Path_295" data-name="Path 295" d="M762.7,422.5h.3a1.5,1.5,0,0,0,0-3h-.3a1.538,1.538,0,0,0-1.5,1.5,1.473,1.473,0,0,0,1.5,1.5Z" fill="#161616"/>
          </g>
        </g>
        <g id="Group_363" data-name="Group 363">
          <g id="Group_362" data-name="Group 362">
            <path id="Path_296" data-name="Path 296" d="M693.7,387a10.4,10.4,0,0,1,13.2-.2c1.5,1.2,3.6-.9,2.1-2.1a13.483,13.483,0,0,0-17.5.2c-1.4,1.2.8,3.3,2.2,2.1Z" fill="#161616"/>
          </g>
        </g>
        <g id="Group_365" data-name="Group 365">
          <g id="Group_364" data-name="Group 364">
            <path id="Path_297" data-name="Path 297" d="M742.5,385.9a13.621,13.621,0,0,1,15.5-1.8c1.7.9,3.2-1.7,1.5-2.6a16.483,16.483,0,0,0-19.1,2.3c-1.5,1.3.6,3.4,2.1,2.1Z" fill="#161616"/>
          </g>
        </g>
        <g id="Group_367" data-name="Group 367">
          <g id="Group_366" data-name="Group 366">
            <path id="Path_298" data-name="Path 298" d="M694.5,420.5a1.5,1.5,0,0,0,0-3,1.5,1.5,0,0,0,0,3Z" fill="#161616"/>
          </g>
        </g>
        <g id="Group_369" data-name="Group 369">
          <g id="Group_368" data-name="Group 368">
            <path id="Path_299" data-name="Path 299" d="M705.1,419.1a1.5,1.5,0,0,0,0-3,1.5,1.5,0,0,0,0,3Z" fill="#161616"/>
          </g>
        </g>
        <g id="Group_371" data-name="Group 371">
          <g id="Group_370" data-name="Group 370">
            <path id="Path_300" data-name="Path 300" d="M699.8,421.4l-.3.3a1.485,1.485,0,0,0,2.1,2.1l.3-.3a1.485,1.485,0,0,0-2.1-2.1Z" fill="#161616"/>
          </g>
        </g>
        <path id="Path_301" data-name="Path 301" d="M690.6,324.4c-6,3.7-19.1,11.8-28,28.4a72.76,72.76,0,0,0-8.4,38.8,227.539,227.539,0,0,0-24.4,65.3c-5.2,25.1-2.4,34.3,1.2,40.4,8.8,15,26.5,18.7,30.8,19.6,22.1,4.7,39.7-6.6,43.7-9.2a64.526,64.526,0,0,0,2.8-12,61.764,61.764,0,0,0-.4-19.6,103.18,103.18,0,0,1-32.4-46.4c-8.8-.9-15.4-6.9-16-13.6-.6-6.3,3.8-14.4,9.6-14.4,4.3,0,7.4,4.4,8,5.2a42.324,42.324,0,0,0,12-10.4c5.9-7.5,6.9-14.2,9.6-21.2,2.6-6.8,7.6-16.2,18.4-26,10.4,3.7,18.7,7.3,24.4,10,18.3,8.5,28.7,13.5,36.8,24.4a53.415,53.415,0,0,1,8,15.6c9.3-7.1,13.1-5.2,13.9-4.8,5.9,3.3,5.7,21.4-3.5,26.4-3.5,1.9-7.5,1.4-10,.8a94.825,94.825,0,0,1-24,41.2,87.127,87.127,0,0,1-14.4,11.6,54.127,54.127,0,0,0,.4,14.8,50.708,50.708,0,0,0,4,13.2c24.3,16,54.5,13.1,70.9-4.1,14.6-15.4,14.6-38.7,9.1-54.6a59.45,59.45,0,0,0-19.5-27c1.3-5.6,8.5-38.8-12.4-69.3-5.4-7.9-20.5-27-47.7-33.6C724.3,306.9,700.6,318.3,690.6,324.4Z" fill="#232323"/>
        <path id="Path_302" data-name="Path 302" d="M754,365.5c11.3,14.2,14.3,27.3,15.3,34.1,4.1,28.6-12.5,51.8-20.9,63.7a123.469,123.469,0,0,1-19.1,21.1c4.4,11.8,8.7,23.5,13.1,35.3l13.5-4.5a68,68,0,0,1-6-13.9,71.172,71.172,0,0,1-3-24.8A106.381,106.381,0,0,0,765,460.3a108.729,108.729,0,0,0,21.8-38.1,15.332,15.332,0,0,0,10.4-1.4c8.6-4.9,7.2-17.1,7.1-17.9-.3-2.6-.9-6.8-3.9-8.5-3.5-1.9-9.3-.1-13.9,5.3a51.345,51.345,0,0,0-16.2-25.2A50.191,50.191,0,0,0,754,365.5Z" fill="#6d6c6c" opacity="0.17"/>
        <path id="Path_303" data-name="Path 303" d="M724.7,389.9c-.6-.1-2.6,8.6-8.7,47h10.5c-.7-5.1-1.5-12.5-1.9-21.5C724.1,400,725.3,390,724.7,389.9Z" fill="#6d6c6c" opacity="0.19"/>
        <path id="Path_304" data-name="Path 304" d="M812.6,417.8c-1.7,1,4.7,9.6,3.8,22.4-.3,4-.9,13.1-8.1,19.2-.5.4-11.2,9.2-21.8,3.6-6.3-3.3-10.1-10.3-9.9-17.9A78.55,78.55,0,0,1,761,465.3a82.521,82.521,0,0,1-13.6,10.3,57.5,57.5,0,0,0,1.3,17.2,62.408,62.408,0,0,0,3.1,9.5,64.134,64.134,0,0,0,13.7,6.8c3.8,1.3,24.7,8.6,45.1-1.5,3.6-1.8,11.6-5.9,17.4-14.7a41.985,41.985,0,0,0,5.2-11.6c6.8-22.6-3.2-43-4.1-44.7C823.6,425.5,814.7,416.6,812.6,417.8Z" fill="#414141" opacity="0.54"/>
        <path id="Path_305" data-name="Path 305" d="M675.4,430.1c-.9.1,1.1,8.3-1.1,16.4-1.6,6-6.7,15.8-15.4,17.8-9.1,2-20.4-4.7-25.6-17.2a71.28,71.28,0,0,0-6.1,25.5c-.3,7.3-.7,15.1,2.9,22.8,8.1,17.2,31.9,23.9,49.6,22.3a57.339,57.339,0,0,0,25.5-8.8,73.767,73.767,0,0,0,3.2-12.2,70.448,70.448,0,0,0,.3-20.4A83.646,83.646,0,0,1,692,460.4c-4.8-6.1-11.3-14.3-14.6-25.7C676.9,433.4,676,430,675.4,430.1Z" fill="#414141" opacity="0.35"/>
      </g>
    </g>
  </g>
</svg>
