<svg xmlns="http://www.w3.org/2000/svg" width="206" height="204" viewBox="0 0 206 204">
  <g id="Group_87" data-name="Group 87" transform="translate(-841 -226)">
    <g id="Union_2" data-name="Union 2" transform="translate(-964 277)" fill="none">
      <path d="M1849,83V40a64.029,64.029,0,0,1,42.723-60.378C1894.2-31.1,1902.79-39,1913-39s18.8,7.9,21.277,18.621A64.03,64.03,0,0,1,1977,40V83Z" stroke="none"/>
      <path d="M 1967.000366210938 72.99980926513672 L 1967.000366210938 39.99960327148438 C 1967.000366210938 17.12591743469238 1952.514282226562 -3.34789776802063 1930.953491210938 -10.94687175750732 L 1925.774047851562 -12.77237129211426 L 1924.535278320312 -18.12260818481445 C 1923.052490234375 -24.52687072753906 1918.309204101562 -28.99968719482422 1913.00048828125 -28.99968719482422 C 1907.691162109375 -28.99968719482422 1902.947387695312 -24.52676582336426 1901.464599609375 -18.12231826782227 L 1900.225708007812 -12.77216053009033 L 1895.046264648438 -10.94668769836426 C 1873.485717773438 -3.347845077514648 1858.999633789062 17.12589263916016 1858.999633789062 39.99960327148438 L 1858.999633789062 72.99980926513672 L 1967.000366210938 72.99980926513672 M 1977.000366210938 82.99980926513672 L 1848.999633789062 82.99980926513672 L 1848.999633789062 39.99960327148438 C 1848.999633789062 12.1139440536499 1866.836547851562 -11.60731887817383 1891.722290039062 -20.37808227539062 C 1894.203735351562 -31.0950813293457 1902.789672851562 -38.99968719482422 1913.00048828125 -38.99968719482422 C 1923.21044921875 -38.99968719482422 1931.796264648438 -31.09526634216309 1934.277587890625 -20.37824058532715 C 1959.162963867188 -11.60750293731689 1977.000366210938 12.1139440536499 1977.000366210938 39.99960327148438 L 1977.000366210938 82.99980926513672 Z" stroke="none" fill="#707070"/>
    </g>
    <g id="Union_1" data-name="Union 1" transform="translate(-976 390)" fill="none">
      <path d="M1906.157,2H1869.5A20.5,20.5,0,0,1,1849-18.5,20.5,20.5,0,0,1,1869.5-39h112A20.5,20.5,0,0,1,2002-18.5,20.5,20.5,0,0,1,1981.5,2h-31.657c-1.3,12.392-10.587,22-21.844,22S1907.461,14.392,1906.157,2Z" stroke="none"/>
      <path d="M 1927.999877929688 14.00029945373535 C 1934.000244140625 14.00029945373535 1939.115478515625 8.391152381896973 1939.8984375 0.9529464840888977 L 1940.840942382812 -8.000200271606445 L 1981.500366210938 -8.000200271606445 C 1987.289672851562 -8.000200271606445 1991.999633789062 -12.7105827331543 1991.999633789062 -18.50040626525879 C 1991.999633789062 -24.28973007202148 1987.289672851562 -28.99970054626465 1981.500366210938 -28.99970054626465 L 1869.499877929688 -28.99970054626465 C 1863.7099609375 -28.99970054626465 1858.999633789062 -24.28973007202148 1858.999633789062 -18.50040626525879 C 1858.999633789062 -12.7105827331543 1863.7099609375 -8.000200271606445 1869.499877929688 -8.000200271606445 L 1915.159545898438 -8.000200271606445 L 1916.10205078125 0.9529464840888977 C 1916.885009765625 8.391152381896973 1922 14.00029945373535 1927.999877929688 14.00029945373535 M 1927.999877929688 24.00029945373535 C 1916.743408203125 24.00029945373535 1907.46142578125 14.39206409454346 1906.156982421875 1.999799489974976 L 1869.499877929688 1.999799489974976 C 1858.177856445312 1.999799489974976 1848.999633789062 -7.178406238555908 1848.999633789062 -18.50040626525879 C 1848.999633789062 -29.82149505615234 1858.177856445312 -38.99970245361328 1869.499877929688 -38.99970245361328 L 1981.500366210938 -38.99970245361328 C 1992.821411132812 -38.99970245361328 2001.999633789062 -29.82149505615234 2001.999633789062 -18.50040626525879 C 2001.999633789062 -7.178406238555908 1992.821411132812 1.999799489974976 1981.500366210938 1.999799489974976 L 1949.843505859375 1.999799489974976 C 1948.5390625 14.39206409454346 1939.256225585938 24.00029945373535 1927.999877929688 24.00029945373535 Z" stroke="none" fill="#707070"/>
    </g>
    <rect id="Rectangle_163" data-name="Rectangle 163" width="206" height="204" rx="8" transform="translate(841 226)" fill="none"/>
    <path id="Path_120" data-name="Path 120" d="M-920.222,425.56h42.961" transform="translate(1851 -38)" fill="none" stroke="#707070" stroke-width="11"/>
  </g>
</svg>
